if (_typeface_js && _typeface_js.loadFace) _typeface_js.loadFace({"glyphs":{"S":{"x_min":85.734375,"x_max":1026.015625,"ha":1114,"o":"m 85 197 b 567 -31 166 61 266 -31 b 944 84 753 -31 864 2 b 1026 301 998 140 1026 213 b 587 626 1026 511 849 586 b 369 740 421 651 369 679 b 573 847 369 806 444 847 b 848 693 706 847 787 800 l 1001 822 b 569 1025 969 886 857 1025 b 321 986 467 1025 385 1012 b 132 702 202 936 132 831 b 551 391 132 502 337 418 b 789 262 720 370 789 333 b 564 148 789 188 710 148 b 246 341 334 148 280 268 l 85 197 "},"¦":{"x_min":334.71875,"x_max":481.9375,"ha":815,"o":"m 334 -243 l 481 -243 l 481 243 l 334 243 l 334 -243 m 334 451 l 481 451 l 481 937 l 334 937 l 334 451 "},"/":{"x_min":29,"x_max":493,"ha":521,"o":"m 29 -263 l 177 -263 l 493 1037 l 344 1037 l 29 -263 "},"y":{"x_min":73.84375,"x_max":825,"ha":897,"o":"m 353 -11 b 228 -91 336 -69 301 -91 b 76 -66 180 -93 139 -84 l 76 -243 b 275 -265 154 -259 204 -265 b 600 30 500 -265 534 -162 l 825 687 l 625 687 l 465 187 l 276 687 l 73 687 l 353 -11 "},"≈":{"x_min":46,"x_max":629.328125,"ha":678,"o":"m 566 633 b 461 537 536 580 509 537 b 358 585 427 537 401 559 b 227 633 329 603 289 633 b 46 491 147 633 82 570 l 109 437 b 218 531 137 483 164 531 b 322 486 257 531 283 513 b 458 435 377 448 411 435 b 629 579 532 435 594 498 l 566 633 m 566 382 b 461 287 534 329 509 287 b 358 336 427 287 398 311 b 226 382 329 352 290 382 b 46 240 147 382 82 320 l 109 184 b 218 281 137 231 164 281 b 322 234 257 281 283 262 b 458 183 377 199 411 183 b 629 327 532 183 594 247 l 566 382 "},"Ž":{"x_min":60.09375,"x_max":837.953125,"ha":897,"o":"m 119 819 l 533 819 l 60 121 l 60 0 l 836 0 l 836 183 l 371 183 l 837 876 l 837 1001 l 119 1001 l 119 819 m 362 1074 l 539 1074 l 679 1274 l 526 1274 l 447 1172 l 373 1274 l 219 1274 l 362 1074 "},"Á":{"x_min":78,"x_max":1109,"ha":1186,"o":"m 732 386 l 453 386 l 592 790 l 732 386 m 78 0 l 321 0 l 387 193 l 799 193 l 865 0 l 1109 0 l 747 1001 l 435 1001 l 78 0 m 625 1070 l 813 1273 l 599 1273 l 504 1070 l 625 1070 "},"g":{"x_min":86.015625,"x_max":783.234375,"ha":897,"o":"m 586 241 b 438 121 561 164 508 121 b 299 346 344 121 299 191 b 349 550 299 455 313 514 b 438 584 373 572 405 584 b 586 489 494 584 538 557 l 586 241 m 588 -46 b 445 -149 588 -117 542 -149 b 320 -87 367 -149 336 -134 l 122 -55 b 180 -191 133 -128 145 -159 b 454 -263 233 -241 319 -263 b 783 -20 674 -263 783 -184 l 783 687 l 584 687 l 584 605 b 380 707 531 675 467 707 b 86 346 201 707 86 566 b 370 -1 86 139 201 -1 b 588 115 473 -1 536 34 l 588 -46 "},"²":{"x_min":55.5625,"x_max":393.0625,"ha":449,"o":"m 159 855 b 156 877 156 866 156 872 b 208 933 156 911 176 933 b 262 866 240 933 262 905 b 187 734 262 820 247 793 b 55 523 104 651 58 594 l 393 523 l 393 615 l 170 615 b 255 697 191 644 202 655 b 377 873 344 769 377 816 b 215 1012 377 958 313 1012 b 62 881 125 1012 62 959 b 75 822 62 863 65 851 l 159 855 "},"–":{"x_min":-5.5625,"x_max":701.390625,"ha":694,"o":"m -5 266 l 701 266 l 701 436 l -5 436 l -5 266 "},"ë":{"x_min":77.59375,"x_max":747.03125,"ha":825,"o":"m 290 411 b 420 579 288 448 283 579 b 545 411 549 579 547 448 l 290 411 m 747 356 b 412 706 747 562 608 706 b 77 348 209 706 77 565 b 417 -19 77 206 138 -19 b 727 143 623 -19 697 95 l 591 220 b 433 112 547 148 495 112 b 290 286 340 112 295 168 l 747 286 l 747 356 m 348 795 l 348 959 l 185 959 l 185 795 l 348 795 m 640 793 l 640 959 l 477 959 l 477 793 l 640 793 "},"ƒ":{"x_min":-36,"x_max":753,"ha":772,"o":"m 301 591 l 200 0 b 120 -115 183 -97 170 -115 b 2 -100 79 -115 45 -109 l -36 -250 b 152 -276 14 -265 91 -276 b 377 -70 333 -276 358 -176 l 494 591 l 633 591 l 658 734 l 518 734 l 525 773 b 611 863 540 847 555 863 b 715 845 639 863 673 858 l 753 998 b 571 1026 696 1016 627 1026 b 337 795 379 1026 362 936 l 326 734 l 190 734 l 165 591 l 301 591 "},"Î":{"x_min":30.5625,"x_max":490.28125,"ha":521,"o":"m 138 0 l 383 0 l 383 1001 l 138 1001 l 138 0 m 184 1074 l 258 1175 l 337 1074 l 490 1074 l 350 1274 l 173 1274 l 30 1074 l 184 1074 "},"e":{"x_min":77.59375,"x_max":747.03125,"ha":825,"o":"m 290 411 b 420 579 288 448 283 579 b 545 411 549 579 547 448 l 290 411 m 747 356 b 412 706 747 562 608 706 b 77 348 209 706 77 565 b 417 -19 77 206 138 -19 b 727 143 623 -19 697 95 l 591 220 b 433 112 547 148 495 112 b 290 286 340 112 295 168 l 747 286 l 747 356 "},"Ã":{"x_min":77.78125,"x_max":1108.328125,"ha":1186,"o":"m 731 386 l 452 386 l 591 790 l 731 386 m 77 0 l 320 0 l 387 193 l 798 193 l 865 0 l 1108 0 l 747 1001 l 434 1001 l 77 0 m 740 1252 b 684 1193 734 1212 718 1193 b 594 1220 662 1193 638 1200 b 483 1251 534 1247 516 1251 b 359 1079 409 1251 352 1197 l 445 1079 b 493 1138 445 1093 445 1138 b 591 1112 513 1138 544 1130 b 706 1081 663 1084 672 1081 b 827 1252 786 1081 827 1140 l 740 1252 "},"J":{"x_min":61.109375,"x_max":752.78125,"ha":897,"o":"m 505 301 b 388 147 505 197 468 147 b 256 340 297 147 256 205 b 261 440 256 358 258 393 l 61 337 b 87 158 61 247 66 208 b 401 -23 134 37 240 -23 b 752 300 486 -23 752 -22 l 752 1001 l 505 1001 l 505 301 "},"»":{"x_min":26,"x_max":711,"ha":738,"o":"m 208 386 l 27 54 l 188 54 l 370 386 l 187 716 l 26 716 l 208 386 m 548 386 l 367 54 l 528 54 l 711 386 l 527 716 l 366 716 l 548 386 "},"∆":{"x_min":32.90625,"x_max":759.296875,"ha":796,"o":"m 32 0 l 759 0 l 759 113 l 507 1015 l 298 1015 l 32 109 l 32 0 m 212 151 l 332 543 b 396 786 352 629 387 730 l 399 786 b 464 523 410 723 448 605 l 577 151 l 212 151 "},"©":{"x_min":-6.9375,"x_max":1031.96875,"ha":1025,"o":"m 748 618 b 522 783 706 730 634 783 b 258 495 361 783 258 670 b 508 205 258 320 358 205 b 748 380 634 205 712 262 l 638 418 b 512 301 615 337 576 301 b 377 504 425 301 377 372 b 518 686 377 616 431 686 b 638 591 576 686 613 656 l 748 618 m 512 1013 b -6 494 226 1013 -6 781 b 512 -25 -6 208 226 -25 b 1031 494 800 -25 1031 208 b 512 1013 1033 781 800 1013 m 512 912 b 930 494 743 912 930 725 b 512 77 930 265 743 77 b 95 494 283 77 95 265 b 512 912 95 725 281 912 "},"˘":{"x_min":19,"x_max":441.21875,"ha":463,"o":"m 19 959 b 230 762 30 837 109 762 b 441 959 350 762 431 837 l 348 959 b 230 862 342 894 303 862 b 145 886 194 862 164 870 b 112 959 125 902 114 927 l 19 959 "},"≥":{"x_min":63.890625,"x_max":618.0625,"ha":678,"o":"m 70 855 l 70 729 l 518 500 l 518 497 l 70 266 l 70 140 l 616 440 l 616 555 l 70 855 m 618 -18 l 618 90 l 63 90 l 63 -18 l 618 -18 "},"ò":{"x_min":85.078125,"x_max":812.859375,"ha":897,"o":"m 448 119 b 298 344 351 119 298 194 b 448 566 298 472 351 566 b 598 344 546 566 598 472 b 448 119 598 194 546 119 m 448 -22 b 812 344 654 -22 812 133 b 448 709 812 555 654 709 b 85 344 235 709 85 555 b 448 -22 85 133 235 -22 m 454 959 l 240 959 l 426 756 l 547 756 l 454 959 "},"^":{"x_min":78.4375,"x_max":734,"ha":811,"o":"m 272 469 l 406 801 l 540 469 l 734 469 l 485 1011 l 334 1011 l 78 469 l 272 469 "},"«":{"x_min":26,"x_max":712,"ha":738,"o":"m 26 386 l 207 54 l 369 54 l 187 386 l 370 716 l 209 716 l 26 386 m 367 386 l 549 54 l 710 54 l 528 386 l 712 716 l 550 716 l 367 386 "},"D":{"x_min":151.390625,"x_max":1091.671875,"ha":1186,"o":"m 609 794 b 834 497 754 794 834 687 b 584 209 834 305 751 209 l 398 209 l 398 794 l 609 794 m 151 0 l 661 0 b 1091 491 925 0 1091 188 b 656 1001 1091 801 920 1001 l 151 1001 l 151 0 "},"∙":{"x_min":86.109375,"x_max":291.671875,"ha":376,"o":"m 86 280 l 291 280 l 291 488 l 86 488 l 86 280 "},"ł":{"x_min":20.828125,"x_max":427.78125,"ha":449,"o":"m 120 480 l 20 395 l 20 262 l 120 347 l 120 1 l 318 1 l 318 516 l 427 608 l 427 738 l 318 650 l 318 1000 l 120 1000 l 120 480 "},"ÿ":{"x_min":73.78125,"x_max":825.171875,"ha":897,"o":"m 352 -11 b 227 -91 336 -69 301 -91 b 76 -66 180 -93 139 -84 l 76 -243 b 275 -265 154 -259 204 -265 b 600 30 500 -265 534 -162 l 825 687 l 625 687 l 465 187 l 276 687 l 73 687 l 352 -11 m 384 795 l 384 959 l 222 959 l 222 795 l 384 795 m 676 793 l 676 959 l 514 959 l 514 793 l 676 793 "},"Ł":{"x_min":41.671875,"x_max":855.5625,"ha":897,"o":"m 154 473 l 41 379 l 41 215 l 154 309 l 154 0 l 855 0 l 855 200 l 398 200 l 398 516 l 627 711 l 627 875 l 398 680 l 398 1001 l 154 1001 l 154 473 "},"í":{"x_min":125,"x_max":445.828125,"ha":449,"o":"m 125 0 l 323 0 l 323 687 l 125 687 l 125 0 m 258 756 l 445 959 l 231 959 l 137 756 l 258 756 "},"ˆ":{"x_min":1.28125,"x_max":461,"ha":463,"o":"m 155 760 l 229 861 l 308 760 l 461 760 l 320 960 l 144 960 l 1 760 l 155 760 "},"w":{"x_min":31.78125,"x_max":1154,"ha":1186,"o":"m 234 0 l 449 0 l 595 485 l 745 0 l 960 0 l 1154 687 l 960 687 l 851 204 l 704 687 l 487 687 l 342 203 l 226 687 l 31 687 l 234 0 "},"$":{"x_min":59.71875,"x_max":765.28125,"ha":825,"o":"m 354 609 b 254 718 280 638 254 668 b 354 826 254 776 288 813 l 354 609 m 490 363 b 608 237 575 330 608 295 b 490 109 608 169 565 122 l 490 363 m 354 945 b 101 693 141 918 101 755 b 354 412 101 516 231 456 l 354 115 b 227 266 276 130 237 177 l 59 266 b 137 70 62 184 87 119 b 354 -19 187 20 248 -5 l 354 -161 l 490 -161 l 490 -18 b 763 258 655 0 763 109 b 526 545 763 441 619 506 l 490 561 l 490 825 b 598 677 562 801 584 770 l 765 677 b 490 948 755 772 736 898 l 490 1013 l 354 1013 l 354 945 "},"∫":{"x_min":40.28125,"x_max":494.4375,"ha":536,"o":"m 494 1220 b 413 1236 477 1227 447 1236 b 252 1168 354 1236 290 1212 b 175 841 197 1102 175 1012 b 193 140 175 594 193 406 b 163 -76 193 16 184 -45 b 112 -104 151 -97 130 -104 b 61 -90 88 -104 73 -95 l 40 -227 b 138 -248 58 -237 94 -248 b 316 -143 206 -248 280 -220 b 359 144 345 -83 359 12 b 341 826 359 406 341 591 b 373 1063 341 943 347 1026 b 434 1100 390 1088 409 1100 b 476 1088 452 1100 463 1094 l 494 1220 "},"\\":{"x_min":28.109375,"x_max":492,"ha":521,"o":"m 343 -263 l 492 -263 l 176 1037 l 28 1037 l 343 -263 "},"Ì":{"x_min":41.671875,"x_max":383.328125,"ha":521,"o":"m 138 0 l 383 0 l 383 1001 l 138 1001 l 138 0 m 255 1273 l 41 1273 l 227 1070 l 348 1070 l 255 1273 "},"µ":{"x_min":90.28125,"x_max":759.71875,"ha":849,"o":"m 90 -276 l 287 -276 l 287 52 b 425 -16 315 13 366 -16 b 562 52 488 -16 534 13 l 562 0 l 759 0 l 759 709 l 562 709 l 562 344 b 425 135 562 183 494 135 b 287 344 355 135 287 183 l 287 709 l 90 709 l 90 -276 "},"Ç":{"x_min":80.5625,"x_max":1033.328125,"ha":1114,"o":"m 838 350 b 594 179 811 301 740 179 b 338 497 431 179 338 295 b 580 819 338 700 429 819 b 819 633 698 819 768 751 l 1019 750 b 920 901 981 829 961 861 b 563 1025 836 984 719 1025 b 80 497 277 1025 80 809 b 595 -31 80 172 279 -31 b 1033 213 887 -31 990 141 l 838 350 m 445 -144 b 533 -131 472 -137 508 -131 b 620 -188 587 -131 620 -152 b 508 -252 620 -227 577 -252 b 380 -244 450 -252 412 -248 l 380 -325 b 512 -336 405 -330 463 -336 b 750 -187 656 -336 750 -277 b 577 -59 750 -111 680 -59 b 462 -77 541 -59 493 -68 l 445 -144 "},"’":{"x_min":95.96875,"x_max":297.359375,"ha":449,"o":"m 297 1001 l 95 1001 l 95 800 l 164 800 b 111 631 161 745 150 711 l 198 581 b 297 827 251 655 297 737 l 297 1001 "},"-":{"x_min":66.671875,"x_max":454.171875,"ha":521,"o":"m 66 237 l 454 237 l 454 436 l 66 436 l 66 237 "},"Q":{"x_min":76.03125,"x_max":1110.890625,"ha":1186,"o":"m 480 325 b 587 181 523 283 556 238 b 335 494 427 186 335 301 b 587 811 335 687 434 811 b 851 502 752 811 851 697 b 746 231 851 329 782 252 b 619 395 705 309 670 355 l 480 325 m 1008 -94 b 877 40 946 -54 912 -18 b 1110 498 960 101 1110 208 b 589 1026 1110 802 910 1026 b 76 497 284 1026 76 812 b 585 -34 76 130 344 -34 b 657 -31 614 -34 638 -33 b 707 -25 677 -30 692 -27 b 844 -179 755 -95 792 -137 l 1008 -94 "},"M":{"x_min":127.78125,"x_max":1147.21875,"ha":1274,"o":"m 127 0 l 329 0 l 329 828 l 540 0 l 730 0 l 944 819 l 944 0 l 1147 0 l 1147 1001 l 795 1001 l 636 391 l 480 1001 l 127 1001 l 127 0 "},"C":{"x_min":94.4375,"x_max":1047.21875,"ha":1114,"o":"m 852 350 b 608 179 825 301 754 179 b 352 497 445 179 352 295 b 594 819 352 700 443 819 b 833 633 712 819 781 751 l 1033 750 b 577 1025 995 829 913 1025 b 94 497 291 1025 94 809 b 609 -31 94 172 293 -31 b 1047 213 901 -31 1004 141 l 852 350 "},"œ":{"x_min":86.109375,"x_max":1261.328125,"ha":1346,"o":"m 808 411 b 934 581 806 446 802 581 b 1062 411 1065 581 1062 454 l 808 411 m 447 567 b 600 344 562 567 600 457 b 447 122 600 200 547 122 b 298 352 347 122 298 197 b 447 567 298 494 345 562 m 1105 222 b 950 112 1062 148 1011 112 b 806 286 858 112 811 169 l 1261 286 b 933 708 1262 380 1266 708 b 698 618 836 708 770 683 b 452 707 625 681 545 707 b 86 351 236 707 86 561 b 444 -18 86 136 236 -18 b 697 72 586 -18 656 38 b 936 -18 734 35 793 -18 b 1241 143 1077 -18 1169 31 l 1105 222 "},"!":{"x_min":123.609375,"x_max":325,"ha":449,"o":"m 152 318 l 297 318 l 320 1001 l 123 1001 l 152 318 m 123 0 l 325 0 l 325 208 l 123 208 l 123 0 "},"ç":{"x_min":80.5625,"x_max":744.453125,"ha":825,"o":"m 587 259 b 434 127 552 166 508 127 b 287 352 336 127 287 201 b 427 561 287 486 337 561 b 569 440 502 561 538 529 l 727 525 b 430 706 672 651 584 706 b 273 681 365 706 316 700 b 80 358 154 633 80 509 b 431 -19 80 115 205 -19 b 744 173 659 -19 718 113 l 587 259 m 301 -130 b 388 -118 327 -123 363 -118 b 476 -175 443 -118 476 -138 b 363 -238 476 -213 433 -238 b 236 -230 305 -238 268 -234 l 236 -311 b 368 -322 261 -316 319 -322 b 605 -173 512 -322 605 -263 b 433 -45 605 -97 536 -45 b 318 -63 397 -45 348 -54 l 301 -130 "},"È":{"x_min":123.78125,"x_max":829.34375,"ha":897,"o":"m 123 0 l 829 0 l 791 183 l 368 183 l 368 426 l 748 426 l 748 609 l 368 609 l 368 818 l 780 818 l 818 1001 l 123 1001 l 123 0 m 454 1273 l 240 1273 l 426 1070 l 547 1070 l 454 1273 "},"ﬁ":{"x_min":23.609375,"x_max":788.890625,"ha":897,"o":"m 141 687 l 23 687 l 23 547 l 141 547 l 141 0 l 338 0 l 338 547 l 494 547 l 494 687 l 338 687 l 338 731 b 483 876 338 840 375 876 b 552 859 512 876 536 870 b 588 809 570 850 583 833 l 788 809 b 465 1027 777 891 734 1027 b 141 758 272 1027 141 919 l 141 687 m 588 0 l 784 0 l 784 687 l 588 687 l 588 0 "},"{":{"x_min":39.28125,"x_max":503.171875,"ha":540,"o":"m 503 -265 l 503 -102 b 364 -4 390 -102 364 -91 b 237 386 364 262 335 329 b 364 777 328 444 364 484 b 503 876 365 865 387 876 l 503 1038 l 467 1038 b 187 734 203 1038 187 925 b 39 468 187 561 179 475 l 39 305 b 187 62 160 298 187 243 b 467 -265 187 -140 189 -265 l 503 -265 "},"X":{"x_min":65,"x_max":1048,"ha":1114,"o":"m 423 506 l 69 0 l 324 0 l 552 327 l 789 0 l 1048 0 l 678 510 l 1018 1001 l 766 1001 l 549 690 l 323 1001 l 65 1001 l 423 506 "},"ô":{"x_min":85.15625,"x_max":812.921875,"ha":897,"o":"m 449 119 b 299 344 351 119 299 194 b 449 566 299 472 351 566 b 599 344 546 566 599 472 b 449 119 599 194 546 119 m 449 -21 b 812 344 654 -21 812 133 b 449 710 812 555 654 710 b 85 344 235 710 85 555 b 449 -21 85 133 235 -21 m 374 760 l 447 861 l 526 760 l 679 760 l 539 960 l 362 960 l 219 760 l 374 760 "},"¼":{"x_min":56.9375,"x_max":1129.171875,"ha":1186,"o":"m 873 -36 l 726 -36 l 873 205 l 873 -36 m 650 -15 l 650 -131 l 873 -131 l 873 -222 l 1013 -222 l 1013 -131 l 1076 -131 l 1076 -36 l 1013 -36 l 1013 354 l 875 354 l 650 -15 m 101 756 b 225 813 144 765 175 779 l 225 426 l 379 426 l 379 1005 l 280 1005 b 101 875 233 943 183 906 l 101 756 m 56 -234 l 201 -234 l 337 -59 l 1129 1004 l 987 1004 l 56 -234 "},"#":{"x_min":53.015625,"x_max":873.984375,"ha":928,"o":"m 53 561 l 237 561 l 194 355 l 53 355 l 53 227 l 168 227 l 114 -29 l 243 -29 l 296 227 l 539 227 l 483 -29 l 611 -29 l 668 227 l 873 227 l 873 355 l 692 355 l 735 561 l 873 561 l 873 690 l 760 690 l 815 950 l 686 950 l 630 690 l 390 690 l 447 950 l 319 950 l 262 690 l 53 690 l 53 561 m 607 561 l 564 356 l 323 356 l 365 561 l 607 561 "},"Ê":{"x_min":123.609375,"x_max":829.171875,"ha":897,"o":"m 123 0 l 829 0 l 791 183 l 368 183 l 368 426 l 748 426 l 748 610 l 368 610 l 368 818 l 780 818 l 818 1001 l 123 1001 l 123 0 m 387 1074 l 461 1175 l 540 1074 l 693 1074 l 552 1274 l 376 1274 l 233 1074 l 387 1074 "},")":{"x_min":65.28125,"x_max":455.5625,"ha":521,"o":"m 66 855 b 250 393 150 797 250 713 b 65 -83 250 193 226 15 l 65 -261 b 455 366 134 -241 455 -119 b 66 1033 455 900 159 998 l 66 855 "},"Å":{"x_min":77.78125,"x_max":1108.328125,"ha":1186,"o":"m 731 386 l 452 386 l 591 790 l 731 386 m 77 0 l 320 0 l 387 193 l 798 193 l 865 0 l 1108 0 l 747 1001 l 434 1001 l 77 0 m 726 1172 b 594 1305 726 1245 668 1305 b 461 1172 520 1305 461 1245 b 594 1040 461 1100 520 1040 b 726 1172 668 1040 726 1098 m 654 1172 b 594 1112 654 1138 627 1112 b 533 1172 561 1112 533 1138 b 594 1233 533 1205 561 1233 b 654 1172 627 1233 654 1205 "},"ø":{"x_min":85,"x_max":813,"ha":897,"o":"m 536 532 l 307 261 b 298 344 301 285 298 312 b 449 566 298 472 351 566 b 536 532 485 566 514 554 m 360 150 l 590 421 b 599 344 596 398 599 372 b 449 119 599 194 546 119 b 360 150 412 119 382 130 m 171 101 l 101 21 l 186 -52 l 255 29 b 449 -21 308 -3 375 -21 b 813 344 654 -21 813 133 b 729 583 813 439 781 521 l 800 666 l 712 739 l 643 657 b 449 710 587 690 521 710 b 85 344 235 710 85 555 b 171 101 85 248 115 165 "},"â":{"x_min":68.078125,"x_max":785.953125,"ha":825,"o":"m 504 250 b 366 113 504 172 444 113 b 273 208 309 113 273 150 b 409 340 273 283 308 318 b 504 375 461 353 470 355 l 504 250 m 704 489 b 395 705 704 682 576 705 b 106 567 172 705 129 612 l 258 497 b 390 586 283 554 330 586 b 504 485 463 586 504 550 l 504 458 b 351 426 449 436 436 433 b 68 196 269 418 68 400 b 290 -17 68 67 156 -17 b 508 110 394 -17 456 24 b 656 -16 527 18 567 -16 b 785 11 704 -16 744 -7 l 785 137 b 758 135 776 136 766 135 b 704 197 724 135 704 160 l 704 489 m 337 760 l 411 861 l 490 760 l 642 760 l 502 960 l 326 960 l 183 760 l 337 760 "},"}":{"x_min":36.828125,"x_max":500.71875,"ha":540,"o":"m 500 468 b 352 711 378 473 352 529 b 72 1038 352 913 349 1038 l 36 1038 l 36 876 b 175 777 152 876 174 865 b 199 508 175 652 184 554 b 302 386 217 454 242 425 b 175 -4 204 329 175 263 b 36 -102 175 -91 149 -102 l 36 -265 l 72 -265 b 352 38 338 -265 352 -151 b 500 305 352 211 360 297 l 500 468 "},"‰":{"x_min":62.578125,"x_max":1528.8125,"ha":1592,"o":"m 277 495 b 487 756 399 495 487 604 b 275 1025 487 918 402 1025 b 62 759 147 1025 62 919 b 277 495 62 598 147 495 m 318 680 b 279 615 318 640 302 615 b 232 680 250 615 232 638 l 232 831 b 273 904 234 881 247 904 b 318 831 305 904 318 881 l 318 680 m 846 -52 b 1052 211 967 -52 1052 56 b 841 476 1052 369 966 476 b 627 205 710 476 627 369 b 846 -52 627 48 715 -52 m 882 127 b 842 66 882 91 866 66 b 796 127 813 66 796 88 l 796 286 b 839 358 798 336 812 358 b 882 286 864 358 882 327 l 882 127 m 1324 -52 b 1528 211 1444 -52 1528 56 b 1317 476 1528 369 1444 476 b 1103 205 1188 476 1103 369 b 1324 -52 1103 48 1191 -52 m 1360 127 b 1320 66 1360 91 1344 66 b 1274 127 1291 66 1274 88 l 1274 286 b 1319 358 1277 336 1289 358 b 1360 286 1344 358 1360 327 l 1360 127 m 218 -54 l 358 -54 l 891 1026 l 766 1026 l 218 -54 "},"Ä":{"x_min":78.375,"x_max":1108.234375,"ha":1186,"o":"m 731 386 l 453 386 l 591 790 l 731 386 m 78 0 l 321 0 l 388 193 l 798 193 l 865 0 l 1108 0 l 747 1001 l 435 1001 l 78 0 m 529 1109 l 529 1273 l 367 1273 l 367 1109 l 529 1109 m 820 1106 l 820 1273 l 658 1273 l 658 1106 l 820 1106 "},"¸":{"x_min":45.828125,"x_max":415.28125,"ha":463,"o":"m 111 -116 b 198 -104 137 -109 173 -104 b 286 -161 252 -104 286 -125 b 173 -225 286 -200 243 -225 b 45 -216 115 -225 77 -220 l 45 -297 b 177 -308 70 -302 129 -308 b 415 -159 322 -308 415 -250 b 243 -31 415 -83 345 -31 b 127 -50 206 -31 158 -40 l 111 -116 "},"a":{"x_min":68.078125,"x_max":786.140625,"ha":825,"o":"m 504 250 b 366 113 504 172 444 113 b 273 208 309 113 273 150 b 409 340 273 283 308 318 b 504 375 461 353 470 356 l 504 250 m 704 489 b 395 706 704 682 576 706 b 106 567 172 706 129 612 l 258 497 b 390 586 283 554 330 586 b 504 485 463 586 504 550 l 504 458 b 351 426 450 436 436 433 b 68 196 269 418 68 400 b 290 -17 68 67 156 -17 b 508 110 394 -17 456 24 b 656 -16 527 18 568 -16 b 786 11 704 -16 744 -7 l 786 138 b 758 135 776 136 766 135 b 704 197 725 135 704 160 l 704 489 "},"—":{"x_min":-11.109375,"x_max":1401.390625,"ha":1389,"o":"m -11 266 l 1401 266 l 1401 436 l -11 436 l -11 266 "},"=":{"x_min":86.109375,"x_max":840.28125,"ha":926,"o":"m 86 547 l 840 547 l 840 693 l 86 693 l 86 547 m 86 225 l 840 225 l 840 370 l 86 370 l 86 225 "},"N":{"x_min":154.171875,"x_max":1030.5625,"ha":1186,"o":"m 154 0 l 390 0 l 390 623 l 761 0 l 1030 0 l 1030 1001 l 794 1001 l 794 413 l 443 1001 l 154 1001 l 154 0 "},"˚":{"x_min":98.609375,"x_max":363.890625,"ha":463,"o":"m 363 858 b 231 991 363 931 305 991 b 98 858 158 991 98 931 b 231 726 98 786 158 726 b 363 858 305 726 363 784 m 291 858 b 231 798 291 825 265 798 b 170 858 198 798 170 825 b 231 919 170 891 198 919 b 291 858 265 919 291 891 "},"ú":{"x_min":122.359375,"x_max":775.140625,"ha":897,"o":"m 122 181 b 340 -18 122 63 211 -18 b 576 100 469 -18 525 42 l 576 0 l 775 0 l 775 688 l 577 688 l 577 250 b 436 108 577 177 509 108 b 322 221 366 108 322 153 l 322 688 l 122 688 l 122 181 m 472 757 l 659 960 l 445 960 l 351 757 l 472 757 "},"⁄":{"x_min":-306,"x_max":522,"ha":217,"o":"m -306 -238 l -219 -238 l 522 1018 l 434 1018 l -306 -238 "},"2":{"x_min":26.875,"x_max":636.84375,"ha":665,"o":"m 243 687 b 234 751 235 719 234 730 b 317 841 234 804 268 841 b 410 694 377 841 410 788 b 210 398 410 586 368 547 b 27 0 72 272 22 181 l 636 0 l 636 179 l 206 179 b 404 373 242 250 278 280 b 628 694 563 488 628 556 b 552 922 628 798 604 869 b 316 1011 496 977 409 1011 b 39 729 152 1011 39 897 b 56 612 39 697 43 669 l 243 687 "},"ü":{"x_min":122.21875,"x_max":775,"ha":897,"o":"m 122 181 b 340 -18 122 63 211 -18 b 576 100 469 -18 525 42 l 576 0 l 775 0 l 775 688 l 577 688 l 577 250 b 436 108 577 177 509 108 b 322 221 366 108 322 153 l 322 688 l 122 688 l 122 181 m 384 796 l 384 960 l 222 960 l 222 796 l 384 796 m 676 793 l 676 960 l 513 960 l 513 793 l 676 793 "},"¯":{"x_min":12.5,"x_max":450,"ha":463,"o":"m 450 787 l 450 912 l 12 912 l 12 787 l 450 787 "},"Z":{"x_min":60.09375,"x_max":837.921875,"ha":897,"o":"m 119 819 l 533 819 l 60 120 l 60 0 l 836 0 l 836 183 l 371 183 l 837 876 l 837 1001 l 119 1001 l 119 819 "},"u":{"x_min":122.21875,"x_max":775,"ha":897,"o":"m 122 181 b 340 -18 122 63 211 -18 b 576 100 469 -18 525 42 l 576 0 l 775 0 l 775 688 l 577 688 l 577 250 b 436 108 577 177 509 108 b 322 221 366 108 322 153 l 322 688 l 122 688 l 122 181 "},"˜":{"x_min":-3.359375,"x_max":465.28125,"ha":463,"o":"m 377 938 b 322 879 372 898 355 879 b 231 906 300 879 276 886 b 120 937 172 933 154 937 b -2 765 47 937 -9 883 l 83 765 b 130 825 83 779 83 825 b 229 798 151 825 181 816 b 344 768 301 770 309 768 b 465 938 423 768 465 826 l 377 938 "},"Ó":{"x_min":75,"x_max":1111.109375,"ha":1186,"o":"m 334 498 b 593 809 334 691 429 809 b 851 498 756 809 851 691 b 593 183 851 305 756 183 b 334 498 429 183 334 305 m 75 498 b 593 -31 75 156 309 -31 b 1111 498 876 -31 1109 163 b 593 1027 1111 840 876 1027 b 75 498 309 1027 75 840 m 616 1070 l 804 1273 l 590 1273 l 495 1070 l 616 1070 "},"k":{"x_min":122.21875,"x_max":858.328125,"ha":897,"o":"m 122 0 l 323 0 l 323 229 l 463 355 l 645 0 l 858 0 l 598 476 l 830 687 l 566 687 l 320 443 l 320 1001 l 122 1001 l 122 0 "},"ˇ":{"x_min":1.28125,"x_max":461,"ha":463,"o":"m 144 760 l 320 760 l 461 960 l 308 960 l 229 858 l 155 960 l 1 960 l 144 760 "},"Ù":{"x_min":127.609375,"x_max":987.328125,"ha":1114,"o":"m 127 1001 l 127 308 b 551 -30 127 83 262 -29 b 987 308 840 -31 987 83 l 987 1001 l 741 1001 l 741 379 b 551 179 741 244 679 179 b 372 375 430 179 372 244 l 372 1001 l 127 1001 m 562 1273 l 348 1273 l 534 1070 l 655 1070 l 562 1273 "},"Ÿ":{"x_min":62.5,"x_max":1052.78125,"ha":1114,"o":"m 433 381 l 433 0 l 677 0 l 677 380 l 1052 1001 l 795 1001 l 556 590 l 322 1001 l 62 1001 l 433 381 m 493 1109 l 493 1273 l 330 1273 l 330 1109 l 493 1109 m 784 1106 l 784 1273 l 622 1273 l 622 1106 l 784 1106 "},"€":{"x_min":31.9375,"x_max":869.453125,"ha":917,"o":"m 869 172 l 727 283 b 540 129 697 233 626 129 b 376 330 451 129 398 212 l 672 330 l 700 455 l 363 455 b 362 495 363 469 362 481 b 363 537 362 509 363 523 l 700 537 l 727 662 l 376 662 b 527 861 397 779 444 861 b 694 727 601 861 645 830 l 845 795 b 520 1012 823 862 747 1012 b 166 662 340 1012 211 876 l 61 662 l 31 537 l 151 537 b 150 495 151 523 150 509 b 151 455 150 481 151 468 l 61 455 l 31 330 l 165 330 b 545 -22 208 109 344 -22 b 869 172 725 -22 836 101 "},"¢":{"x_min":78.015625,"x_max":747.484375,"ha":825,"o":"m 307 218 b 284 357 291 256 284 298 b 454 560 284 507 350 573 l 307 218 m 512 698 b 419 707 489 702 461 707 b 78 345 222 707 78 588 b 228 30 78 163 157 76 l 100 -264 l 219 -264 l 329 -10 b 432 -18 365 -15 391 -18 b 747 280 629 -18 743 90 l 578 280 b 433 129 554 176 510 129 b 391 133 423 129 408 130 l 544 491 b 565 441 553 476 557 464 l 743 441 b 618 661 729 547 694 618 l 726 916 l 608 916 l 512 698 "},"Ω":{"x_min":37.5,"x_max":780.5625,"ha":822,"o":"m 191 152 l 37 152 l 37 0 l 354 0 l 354 111 b 236 518 294 159 236 306 b 412 850 236 712 301 850 b 581 526 527 850 581 700 b 463 111 581 294 522 159 l 463 0 l 780 0 l 780 152 l 625 152 l 625 158 b 762 570 693 241 762 395 b 415 1011 762 763 654 1011 b 55 556 197 1011 55 801 b 191 158 55 383 122 245 l 191 152 "},"ß":{"x_min":100.921875,"x_max":796.765625,"ha":897,"o":"m 100 0 l 298 0 l 298 744 b 427 891 298 843 341 891 b 556 750 513 891 556 843 b 443 629 556 661 528 630 l 443 505 b 587 304 563 504 587 469 b 499 115 587 173 560 115 b 414 148 473 115 445 125 l 414 1 b 543 -18 466 -12 500 -18 b 796 288 709 -18 796 87 b 618 570 796 483 713 531 b 764 769 712 606 764 669 b 439 1023 764 926 641 1023 b 100 687 353 1023 100 1023 l 100 0 "},"é":{"x_min":77.796875,"x_max":747.03125,"ha":825,"o":"m 290 411 b 420 579 288 448 283 579 b 545 411 550 579 547 448 l 290 411 m 747 356 b 412 706 747 562 608 706 b 77 348 209 706 77 565 b 418 -19 77 206 138 -19 b 727 143 623 -19 697 95 l 591 220 b 433 112 547 148 495 112 b 290 286 340 112 295 168 l 747 286 l 747 356 m 436 756 l 623 959 l 409 959 l 315 756 l 436 756 "},"s":{"x_min":52.984375,"x_max":684.9375,"ha":738,"o":"m 52 168 b 112 70 75 116 87 97 b 365 -19 172 9 255 -19 b 618 58 483 -19 564 4 b 684 219 661 100 684 156 b 391 451 684 351 577 409 b 243 537 277 477 243 497 b 340 595 243 570 286 595 b 482 493 432 595 476 563 l 657 523 b 346 706 611 691 468 706 b 77 504 180 706 77 629 b 361 261 77 375 159 305 b 511 169 469 237 511 211 b 396 93 511 125 465 93 b 211 229 296 93 237 136 l 52 168 "},"B":{"x_min":138.890625,"x_max":1030.5625,"ha":1114,"o":"m 612 820 b 762 722 706 820 762 783 b 608 612 762 650 709 612 l 384 612 l 384 820 l 612 820 m 591 429 b 773 301 713 429 773 387 b 631 183 773 225 723 183 l 384 183 l 384 429 l 591 429 m 138 0 l 688 0 b 1030 269 891 0 1030 109 b 901 480 1030 366 977 436 b 752 530 859 504 829 515 b 993 761 843 556 993 601 b 925 919 993 820 969 877 b 650 1001 866 976 779 1001 l 138 1001 l 138 0 "},"…":{"x_min":94.4375,"x_max":1093.0625,"ha":1186,"o":"m 888 0 l 1093 0 l 1093 208 l 888 208 l 888 0 m 94 0 l 298 0 l 298 208 l 94 208 l 94 0 m 491 0 l 695 0 l 695 208 l 491 208 l 491 0 "},"?":{"x_min":94.09375,"x_max":730.21875,"ha":825,"o":"m 287 673 b 280 745 281 709 280 729 b 399 901 280 848 320 901 b 514 762 474 901 514 852 b 414 569 514 675 484 636 b 309 319 337 495 312 454 l 453 319 b 580 523 451 381 462 436 b 730 783 687 604 730 679 b 409 1022 730 925 598 1022 b 177 947 303 1022 228 998 b 94 750 130 900 99 829 l 287 673 m 282 0 l 480 0 l 480 208 l 282 208 l 282 0 "},"H":{"x_min":130.5625,"x_max":1055.5625,"ha":1186,"o":"m 130 0 l 375 0 l 375 422 l 811 422 l 811 0 l 1055 0 l 1055 1001 l 812 1001 l 812 611 l 377 611 l 377 1001 l 130 1001 l 130 0 "},"î":{"x_min":-5.5625,"x_max":454.171875,"ha":449,"o":"m 125 0 l 323 0 l 323 687 l 125 687 l 125 0 m 148 760 l 222 861 l 301 760 l 454 760 l 313 960 l 137 960 l -5 760 l 148 760 "},"c":{"x_min":80.5625,"x_max":744.453125,"ha":825,"o":"m 587 259 b 434 127 552 166 508 127 b 287 352 336 127 287 201 b 427 561 287 486 337 561 b 569 440 502 561 538 529 l 727 525 b 430 706 672 651 584 706 b 273 681 365 706 316 700 b 80 358 154 633 80 509 b 431 -19 80 115 205 -19 b 744 173 659 -19 718 113 l 587 259 "},"¶":{"x_min":2.78125,"x_max":769.453125,"ha":772,"o":"m 434 823 l 531 823 l 531 -266 l 693 -266 l 693 823 l 769 823 l 769 1001 l 365 1001 b 113 950 209 1001 181 995 b 2 720 44 905 2 818 b 269 443 2 556 100 455 l 269 -266 l 434 -266 l 434 823 "},"−":{"x_min":84.71875,"x_max":841.671875,"ha":926,"o":"m 84 386 l 841 386 l 841 531 l 84 531 l 84 386 "},"≠":{"x_min":60.015625,"x_max":616.984375,"ha":678,"o":"m 504 711 l 423 738 l 365 598 l 60 598 l 60 491 l 329 491 l 257 315 l 60 315 l 60 209 l 221 209 l 173 95 l 255 66 l 314 209 l 616 209 l 616 315 l 350 315 l 422 491 l 616 491 l 616 598 l 457 598 l 504 711 "},"•":{"x_min":41.671875,"x_max":443.0625,"ha":486,"o":"m 443 490 b 241 691 443 601 352 691 b 41 490 131 691 41 601 b 241 290 41 380 131 290 b 443 490 352 290 443 380 "},"¥":{"x_min":62.5,"x_max":1051.390625,"ha":1114,"o":"m 62 1001 l 351 556 l 65 556 l 63 431 l 433 431 l 433 329 l 65 329 l 63 204 l 433 204 l 433 0 l 677 0 l 677 204 l 1051 204 l 1051 329 l 677 329 l 677 431 l 1051 431 l 1051 556 l 759 556 l 1048 1001 l 788 1001 l 555 643 l 322 1001 l 62 1001 "},"(":{"x_min":65.28125,"x_max":455.5625,"ha":521,"o":"m 454 -83 b 270 378 370 -25 270 58 b 455 855 270 578 294 756 l 455 1033 b 65 405 386 1013 65 891 b 454 -261 65 -128 361 -226 l 454 -83 "},"U":{"x_min":127.78125,"x_max":987.5,"ha":1114,"o":"m 127 1001 l 127 308 b 551 -30 127 83 262 -29 b 987 308 840 -31 987 83 l 987 1001 l 741 1001 l 741 379 b 551 179 741 244 679 179 b 372 375 430 179 372 244 l 372 1001 l 127 1001 "},"◊":{"x_min":64,"x_max":681,"ha":743,"o":"m 681 497 l 451 1063 l 304 1063 l 64 497 l 293 -66 l 439 -66 l 681 497 m 521 493 l 394 179 b 372 88 389 165 376 112 l 365 88 b 344 183 362 111 353 151 l 222 502 l 347 805 b 372 905 357 837 365 873 l 378 905 b 401 805 382 875 391 836 l 521 493 "},"Ñ":{"x_min":154.171875,"x_max":1030.5625,"ha":1186,"o":"m 154 0 l 390 0 l 390 623 l 761 0 l 1030 0 l 1030 1001 l 794 1001 l 794 413 l 443 1001 l 154 1001 l 154 0 m 754 1252 b 698 1193 748 1212 731 1193 b 608 1220 676 1193 652 1200 b 497 1251 548 1247 530 1251 b 373 1079 423 1251 366 1197 l 459 1079 b 506 1138 459 1093 459 1138 b 605 1112 527 1138 558 1130 b 720 1081 677 1084 686 1081 b 841 1252 800 1081 841 1140 l 754 1252 "},"F":{"x_min":123.609375,"x_max":829.171875,"ha":897,"o":"m 123 0 l 368 0 l 368 402 l 745 402 l 745 583 l 366 583 l 366 820 l 793 820 l 829 1001 l 123 1001 l 123 0 "},"­":{"x_min":66.671875,"x_max":454.171875,"ha":521,"o":"m 66 237 l 454 237 l 454 436 l 66 436 l 66 237 "},":":{"x_min":122.21875,"x_max":327.78125,"ha":449,"o":"m 122 479 l 327 479 l 327 687 l 122 687 l 122 479 m 123 0 l 327 0 l 327 208 l 123 208 l 123 0 "},"Û":{"x_min":128.140625,"x_max":987.859375,"ha":1114,"o":"m 128 1001 l 128 308 b 551 -30 128 83 262 -28 b 987 308 840 -31 987 83 l 987 1001 l 742 1001 l 742 379 b 551 179 742 244 679 179 b 372 375 430 179 372 244 l 372 1001 l 128 1001 m 482 1074 l 555 1175 l 635 1074 l 787 1074 l 647 1274 l 471 1274 l 328 1074 l 482 1074 "},"*":{"x_min":43.953125,"x_max":620.046875,"ha":665,"o":"m 123 947 l 299 758 l 43 818 l 43 661 l 302 720 l 120 533 l 259 452 l 334 700 l 406 451 l 543 529 l 363 719 l 620 662 l 620 819 l 367 755 l 545 945 l 411 1025 l 334 773 l 259 1025 l 123 947 "},"†":{"x_min":37.890625,"x_max":628.09375,"ha":665,"o":"m 286 668 l 37 712 l 37 527 l 286 572 l 230 -231 l 437 -231 l 382 572 l 628 527 l 628 712 l 380 666 l 429 1001 l 240 1001 l 286 668 "},"∕":{"x_min":-306,"x_max":522,"ha":217,"o":"m -306 -238 l -219 -238 l 522 1018 l 434 1018 l -306 -238 "},"°":{"x_min":61.109375,"x_max":494.4375,"ha":556,"o":"m 61 794 b 277 577 61 675 158 579 b 494 794 397 577 494 675 b 277 1011 494 913 397 1011 b 61 794 158 1011 61 913 m 173 794 b 277 898 173 851 220 898 b 381 794 334 898 381 852 b 277 691 381 737 334 691 b 173 794 220 691 173 737 "},"V":{"x_min":73.71875,"x_max":1114,"ha":1186,"o":"m 475 0 l 722 0 l 1114 1001 l 866 1001 l 597 315 l 323 1001 l 73 1001 l 475 0 "},"å":{"x_min":68.078125,"x_max":786.140625,"ha":825,"o":"m 504 250 b 366 113 504 172 444 113 b 273 208 309 113 273 150 b 409 340 273 283 308 318 b 504 375 461 353 470 356 l 504 250 m 704 489 b 395 706 704 682 576 706 b 106 567 172 706 129 612 l 258 497 b 390 586 283 554 330 586 b 504 485 463 586 504 550 l 504 458 b 351 426 450 436 436 433 b 68 196 269 418 68 400 b 290 -17 68 67 156 -17 b 508 110 394 -17 456 24 b 656 -16 527 18 568 -16 b 786 11 704 -16 744 -7 l 786 138 b 758 135 776 136 766 135 b 704 197 725 135 704 160 l 704 489 m 545 858 b 413 992 545 932 487 992 b 280 858 340 992 280 932 b 413 726 280 786 340 726 b 545 858 487 726 545 785 m 473 858 b 413 799 473 825 447 799 b 352 858 380 799 352 825 b 413 919 352 892 380 919 b 473 858 447 919 473 892 "}," ":{"x_min":0,"x_max":0,"ha":333},"0":{"x_min":29.171875,"x_max":636.109375,"ha":665,"o":"m 420 261 b 330 127 420 176 387 127 b 243 276 279 127 243 188 l 243 713 b 329 862 243 811 273 862 b 420 733 386 862 420 813 l 420 261 m 331 1011 b 180 966 277 1013 225 997 b 29 525 77 898 29 755 b 155 48 29 273 63 141 b 338 -22 201 2 265 -22 b 636 477 526 -22 636 161 b 513 933 636 720 602 843 b 331 1011 461 986 408 1008 "},"”":{"x_min":73.96875,"x_max":609.359375,"ha":738,"o":"m 274 1001 l 73 1001 l 73 800 l 141 800 b 89 631 139 745 128 711 l 176 581 b 274 827 229 655 274 737 l 274 1001 m 609 1001 l 408 1001 l 408 800 l 476 800 b 423 631 473 745 462 711 l 510 581 b 609 827 563 655 609 737 l 609 1001 "},"¾":{"x_min":56.046875,"x_max":1128.265625,"ha":1186,"o":"m 196 856 b 249 920 190 905 226 920 b 303 848 281 920 303 891 b 212 775 303 775 244 775 l 212 683 b 312 588 254 686 312 684 b 247 501 312 536 286 501 b 189 580 225 501 178 516 l 65 612 b 62 570 64 595 62 581 b 257 415 62 479 143 415 b 467 584 387 415 467 479 b 329 733 467 668 418 720 b 456 859 415 755 456 795 b 243 1005 456 950 374 1005 b 74 870 139 1005 74 954 b 78 831 74 862 75 850 l 196 856 m 56 -233 l 201 -233 l 1128 1005 l 985 1005 l 56 -233 m 872 -34 l 725 -34 l 872 209 l 872 -34 m 649 -12 l 649 -129 l 872 -129 l 872 -220 l 1012 -220 l 1012 -129 l 1075 -129 l 1075 -33 l 1012 -33 l 1012 356 l 874 356 l 649 -12 "},"@":{"x_min":23.609375,"x_max":1331.953125,"ha":1354,"o":"m 1019 733 l 841 733 l 825 658 b 645 750 786 718 725 750 b 279 305 401 750 279 483 b 540 15 279 131 383 15 b 723 92 609 15 670 41 b 848 15 737 37 775 15 b 1295 504 1093 15 1295 237 b 718 1026 1295 815 1062 1026 b 23 341 225 1026 23 658 b 736 -276 23 -27 268 -276 b 1331 27 1023 -276 1234 -168 l 1187 27 b 720 -152 1090 -94 938 -152 b 147 333 365 -152 147 33 b 715 902 147 525 244 902 b 1173 511 990 902 1173 747 b 934 154 1173 295 1000 154 b 908 185 918 154 908 166 b 918 247 908 198 909 208 l 1019 733 m 454 306 b 661 627 461 494 547 627 b 787 469 737 627 787 566 b 575 138 787 388 740 138 b 454 306 504 138 451 198 "},"ö":{"x_min":84.71875,"x_max":812.5,"ha":897,"o":"m 448 119 b 298 344 351 119 298 194 b 448 566 298 472 351 566 b 598 344 545 566 598 472 b 448 119 598 194 545 119 m 448 -22 b 812 344 654 -22 812 133 b 448 709 812 555 654 709 b 84 344 234 709 84 555 b 448 -22 84 133 234 -22 m 384 795 l 384 959 l 222 959 l 222 795 l 384 795 m 676 793 l 676 959 l 513 959 l 513 793 l 676 793 "},"i":{"x_min":125,"x_max":325,"ha":449,"o":"m 126 816 l 325 816 l 325 1001 l 126 1001 l 126 816 m 125 0 l 323 0 l 323 687 l 125 687 l 125 0 "},"≤":{"x_min":62.5,"x_max":619.4375,"ha":678,"o":"m 612 140 l 612 266 l 165 497 l 165 500 l 612 729 l 612 855 l 66 555 l 66 440 l 612 140 m 619 -18 l 619 90 l 62 90 l 62 -18 l 619 -18 "},"Õ":{"x_min":75,"x_max":1111.109375,"ha":1186,"o":"m 334 498 b 593 809 334 691 429 809 b 851 498 756 809 851 691 b 593 183 851 305 756 183 b 334 498 429 183 334 305 m 75 498 b 593 -31 75 156 309 -31 b 1111 498 876 -31 1109 163 b 593 1027 1111 840 876 1027 b 75 498 309 1027 75 840 m 740 1252 b 684 1193 734 1212 718 1193 b 594 1220 662 1193 638 1200 b 483 1251 534 1247 516 1251 b 359 1079 409 1251 352 1197 l 445 1079 b 493 1138 445 1093 445 1138 b 591 1112 513 1138 544 1130 b 706 1081 663 1084 672 1081 b 827 1252 786 1081 827 1140 l 740 1252 "},"þ":{"x_min":112.5,"x_max":813.890625,"ha":897,"o":"m 309 492 b 458 583 354 555 400 583 b 602 342 552 583 602 500 b 554 143 602 236 588 179 b 462 105 530 121 495 105 b 309 200 406 105 361 135 l 309 492 m 311 1001 l 112 1001 l 112 -264 l 311 -264 l 311 87 b 530 -17 381 8 437 -17 b 813 361 705 -17 813 126 b 529 707 813 575 705 707 b 311 600 431 707 375 679 l 311 1001 "},"]":{"x_min":66.671875,"x_max":452.78125,"ha":521,"o":"m 69 900 l 256 900 l 256 -123 l 66 -123 l 66 -226 l 452 -226 l 452 1002 l 69 1002 l 69 900 "},"m":{"x_min":125,"x_max":1222.21875,"ha":1346,"o":"m 323 687 l 125 687 l 125 0 l 325 0 l 325 401 b 470 572 325 506 381 572 b 573 461 540 572 573 536 l 573 0 l 773 0 l 773 400 b 916 575 773 501 833 575 b 1022 466 984 575 1022 536 l 1022 0 l 1222 0 l 1222 470 b 995 704 1222 618 1137 704 b 768 563 913 704 833 673 b 566 704 750 618 720 704 b 323 576 415 704 351 615 l 323 687 "},"8":{"x_min":27.765625,"x_max":638.640625,"ha":665,"o":"m 338 884 b 422 741 397 884 422 838 b 335 593 422 638 395 593 b 256 729 279 593 256 633 b 338 884 256 836 281 884 m 338 461 b 422 273 401 461 422 413 b 331 104 422 158 392 104 b 244 287 272 104 244 161 b 338 461 244 413 270 461 m 473 533 b 633 768 531 562 633 615 b 334 1011 633 912 513 1011 b 47 756 163 1011 47 906 b 109 601 47 698 68 644 b 202 536 134 573 154 561 b 27 270 147 512 27 459 b 342 -22 27 95 154 -22 b 638 273 515 -22 638 101 b 473 533 638 459 524 511 "},"ž":{"x_min":92.09375,"x_max":644.96875,"ha":738,"o":"m 111 530 l 393 530 l 92 136 l 92 0 l 644 0 l 644 157 l 342 157 l 639 547 l 639 687 l 111 687 l 111 530 m 282 760 l 458 760 l 599 960 l 446 960 l 367 858 l 293 960 l 139 960 l 282 760 "},"R":{"x_min":129.671875,"x_max":1054.671875,"ha":1114,"o":"m 625 820 b 763 712 706 820 763 775 b 619 595 763 640 707 595 l 378 595 l 378 820 l 625 820 m 129 0 l 375 0 l 375 413 l 538 413 l 786 0 l 1054 0 l 790 445 b 1019 716 974 484 1019 622 b 642 1001 1019 890 872 1001 l 129 1001 l 129 0 "},"á":{"x_min":68.078125,"x_max":785.9375,"ha":825,"o":"m 504 250 b 366 113 504 172 444 113 b 273 208 309 113 273 150 b 409 340 273 283 308 318 b 504 375 461 353 470 356 l 504 250 m 704 489 b 395 706 704 682 576 706 b 106 567 172 706 129 612 l 258 497 b 390 586 283 554 330 586 b 504 485 463 586 504 550 l 504 458 b 351 426 449 436 436 433 b 68 196 269 418 68 400 b 290 -17 68 67 156 -17 b 508 110 394 -17 456 24 b 656 -16 527 18 567 -16 b 785 11 703 -16 744 -7 l 785 138 b 758 135 776 136 766 135 b 704 197 724 135 704 160 l 704 489 m 436 757 l 623 960 l 409 960 l 315 757 l 436 757 "},"×":{"x_min":107,"x_max":821,"ha":926,"o":"m 361 456 l 109 205 l 212 102 l 465 354 l 716 102 l 819 205 l 568 456 l 821 711 l 718 813 l 464 559 l 209 813 l 107 711 l 361 456 "},"o":{"x_min":84.71875,"x_max":812.5,"ha":897,"o":"m 448 119 b 298 344 351 119 298 194 b 448 566 298 472 351 566 b 598 344 545 566 598 472 b 448 119 598 194 545 119 m 448 -22 b 812 344 654 -22 812 133 b 448 709 812 555 654 709 b 84 344 234 709 84 555 b 448 -22 84 133 234 -22 "},"5":{"x_min":33.328125,"x_max":631.9375,"ha":665,"o":"m 91 1001 l 54 483 l 197 445 b 308 531 233 509 262 531 b 412 323 387 531 412 483 b 309 144 412 194 383 144 b 205 279 240 144 215 177 l 33 238 b 322 -22 36 156 73 -22 b 631 345 516 -22 631 113 b 366 672 631 538 520 670 b 215 615 302 672 254 652 l 230 831 l 569 831 l 569 1001 l 91 1001 "},"õ":{"x_min":84.71875,"x_max":812.5,"ha":897,"o":"m 448 119 b 298 344 351 119 298 194 b 448 566 298 472 351 566 b 598 344 545 566 598 472 b 448 119 598 194 545 119 m 448 -22 b 812 344 654 -22 812 133 b 448 709 812 555 654 709 b 84 344 234 709 84 555 b 448 -22 84 133 234 -22 m 595 938 b 540 879 590 898 573 879 b 450 906 518 879 494 886 b 338 937 390 933 372 937 b 215 765 265 937 208 883 l 301 765 b 348 825 301 779 301 825 b 447 798 369 825 400 816 b 562 768 519 770 527 768 b 683 938 641 768 683 826 l 595 938 "},"7":{"x_min":30.953125,"x_max":635.046875,"ha":665,"o":"m 30 830 l 479 830 b 205 0 262 459 224 144 l 426 0 b 565 727 436 312 480 530 b 635 855 589 783 600 802 l 635 1006 l 30 1006 l 30 830 "},"K":{"x_min":137.5,"x_max":1133.328125,"ha":1186,"o":"m 137 0 l 381 0 l 381 291 l 588 494 l 863 0 l 1133 0 l 759 662 l 1106 1001 l 804 1001 l 384 580 l 384 1001 l 137 1001 l 137 0 "},",":{"x_min":121.984375,"x_max":326.15625,"ha":449,"o":"m 121 0 l 199 0 b 126 -206 195 -81 176 -139 l 199 -262 b 326 6 305 -177 326 -73 l 326 208 l 121 208 l 121 0 "},"d":{"x_min":84.71875,"x_max":784.71875,"ha":897,"o":"m 588 207 b 434 105 545 136 498 105 b 297 351 338 105 297 180 b 347 549 297 459 311 512 b 437 585 372 573 401 585 b 588 481 498 585 558 544 l 588 207 m 586 591 b 375 705 523 674 466 705 b 84 365 204 705 84 565 b 186 51 84 223 119 118 b 373 -17 233 3 288 -17 b 588 97 509 -17 559 54 l 588 0 l 784 0 l 784 1001 l 586 1001 l 586 591 "},"¨":{"x_min":4.171875,"x_max":458.328125,"ha":463,"o":"m 166 795 l 166 959 l 4 959 l 4 795 l 166 795 m 458 793 l 458 959 l 295 959 l 295 793 l 458 793 "},"Ô":{"x_min":75,"x_max":1111.109375,"ha":1186,"o":"m 334 499 b 593 810 334 692 429 810 b 851 499 756 810 851 692 b 593 183 851 305 756 183 b 334 499 429 183 334 305 m 75 499 b 593 -31 75 157 309 -31 b 1111 499 876 -31 1109 164 b 593 1028 1111 840 876 1028 b 75 499 309 1028 75 840 m 518 1074 l 591 1175 l 670 1074 l 823 1074 l 683 1274 l 506 1274 l 363 1074 l 518 1074 "},"E":{"x_min":123.609375,"x_max":829.171875,"ha":897,"o":"m 123 0 l 829 0 l 791 183 l 368 183 l 368 426 l 748 426 l 748 609 l 368 609 l 368 818 l 780 818 l 818 1001 l 123 1001 l 123 0 "},"Y":{"x_min":62.5,"x_max":1052.78125,"ha":1114,"o":"m 433 381 l 433 0 l 677 0 l 677 380 l 1052 1001 l 795 1001 l 556 590 l 322 1001 l 62 1001 l 433 381 "},"\"":{"x_min":98.609375,"x_max":638.890625,"ha":738,"o":"m 98 1001 l 98 801 l 140 581 l 258 581 l 300 801 l 300 1001 l 98 1001 m 437 1001 l 437 801 l 479 581 l 597 581 l 638 801 l 638 1001 l 437 1001 "},"‹":{"x_min":53,"x_max":397,"ha":449,"o":"m 53 386 l 234 54 l 395 54 l 213 386 l 397 716 l 236 716 l 53 386 "},"˙":{"x_min":137.5,"x_max":325,"ha":463,"o":"m 325 779 l 325 959 l 137 959 l 137 779 l 325 779 "},"ê":{"x_min":77.75,"x_max":747.03125,"ha":825,"o":"m 290 411 b 420 579 288 448 283 579 b 545 411 549 579 547 448 l 290 411 m 747 357 b 412 707 747 562 608 707 b 77 348 209 707 77 565 b 418 -19 77 207 138 -19 b 727 143 623 -19 697 96 l 591 221 b 433 112 547 148 495 112 b 290 286 340 112 295 168 l 747 286 l 747 357 m 337 760 l 411 861 l 490 760 l 643 760 l 502 960 l 326 960 l 183 760 l 337 760 "},"Ï":{"x_min":33.328125,"x_max":487.5,"ha":521,"o":"m 138 0 l 383 0 l 383 1001 l 138 1001 l 138 0 m 195 1109 l 195 1273 l 33 1273 l 33 1109 l 195 1109 m 487 1106 l 487 1273 l 325 1273 l 325 1106 l 487 1106 "},"„":{"x_min":96.96875,"x_max":641.359375,"ha":738,"o":"m 298 201 l 96 201 l 96 0 l 165 0 b 112 -168 162 -54 151 -88 l 199 -218 b 298 27 252 -144 298 -62 l 298 201 m 641 201 l 439 201 l 439 0 l 508 0 b 455 -168 505 -54 494 -88 l 542 -218 b 641 27 595 -144 641 -62 l 641 201 "},"Â":{"x_min":78,"x_max":1109,"ha":1186,"o":"m 732 386 l 453 386 l 592 790 l 732 386 m 78 0 l 321 0 l 387 193 l 799 193 l 865 0 l 1109 0 l 747 1001 l 435 1001 l 78 0 m 518 1074 l 592 1175 l 671 1074 l 824 1074 l 683 1274 l 507 1274 l 364 1074 l 518 1074 "},"Í":{"x_min":138.890625,"x_max":469.4375,"ha":521,"o":"m 138 0 l 383 0 l 383 1001 l 138 1001 l 138 0 m 281 1070 l 469 1273 l 255 1273 l 161 1070 l 281 1070 "},"´":{"x_min":132.671875,"x_max":441,"ha":463,"o":"m 253 756 l 441 959 l 227 959 l 132 756 l 253 756 "},"ì":{"x_min":2.78125,"x_max":323.609375,"ha":449,"o":"m 125 0 l 323 0 l 323 687 l 125 687 l 125 0 m 216 959 l 2 959 l 188 756 l 309 756 l 216 959 "},"±":{"x_min":84.71875,"x_max":841.671875,"ha":928,"o":"m 84 506 l 390 506 l 390 201 l 536 201 l 536 506 l 841 506 l 841 652 l 536 652 l 536 958 l 390 958 l 390 652 l 84 652 l 84 506 m 84 -40 l 841 -40 l 841 105 l 84 105 l 84 -40 "},"Ú":{"x_min":128.125,"x_max":987.84375,"ha":1114,"o":"m 128 1001 l 128 308 b 551 -30 128 83 262 -29 b 987 308 840 -31 987 83 l 987 1001 l 742 1001 l 742 379 b 551 179 742 244 679 179 b 372 375 430 179 372 244 l 372 1001 l 128 1001 m 580 1070 l 768 1273 l 554 1273 l 460 1070 l 580 1070 "},"|":{"x_min":334.71875,"x_max":481.9375,"ha":815,"o":"m 334 -347 l 481 -347 l 481 1041 l 334 1041 l 334 -347 "},"§":{"x_min":40.21875,"x_max":625.96875,"ha":665,"o":"m 381 219 b 187 416 244 302 187 344 b 252 540 187 459 206 497 b 266 533 256 538 258 537 b 434 419 337 494 402 451 b 480 322 465 390 480 356 b 412 201 480 279 461 245 l 381 219 m 68 -41 b 331 -263 77 -109 98 -263 b 596 -47 596 -263 596 -58 b 501 137 596 29 573 75 b 625 380 545 175 625 245 b 366 683 625 516 544 583 b 229 813 256 745 229 772 b 324 884 229 854 269 884 b 444 747 397 884 431 844 l 600 787 b 338 1011 585 920 509 1011 b 68 784 172 1011 68 925 b 163 604 68 712 97 656 b 40 359 120 569 40 502 b 277 72 40 212 156 143 b 431 -73 404 -2 431 -27 b 344 -140 431 -112 394 -140 b 227 -6 274 -140 234 -94 l 68 -41 "},"Ý":{"x_min":62.5,"x_max":1052.78125,"ha":1114,"o":"m 433 381 l 433 0 l 677 0 l 677 380 l 1052 1001 l 795 1001 l 556 590 l 322 1001 l 62 1001 l 433 381 m 580 1070 l 768 1273 l 554 1273 l 459 1070 l 580 1070 "},"b":{"x_min":125,"x_max":827.78125,"ha":897,"o":"m 322 454 b 481 585 350 537 409 585 b 566 548 512 585 544 571 b 615 344 601 512 615 455 b 566 140 615 237 601 176 b 481 105 544 116 515 105 b 322 216 419 105 352 151 l 322 454 m 125 0 l 322 0 l 322 110 b 545 -17 356 61 411 -17 b 827 354 712 -17 827 135 b 541 707 827 572 718 707 b 322 586 420 707 356 628 l 322 1001 l 125 1001 l 125 0 "},"q":{"x_min":83.328125,"x_max":784.71875,"ha":897,"o":"m 588 205 b 434 105 537 137 488 105 b 295 343 344 105 295 189 b 348 547 295 451 311 508 b 437 584 373 571 404 584 b 588 486 495 584 540 555 l 588 205 m 586 -265 l 784 -265 l 784 687 l 588 687 l 588 600 b 369 707 518 679 461 707 b 83 355 191 707 83 573 b 377 -17 83 125 195 -17 b 586 89 459 -17 529 16 l 586 -265 "},"Ω":{"x_min":37.5,"x_max":780.5625,"ha":822,"o":"m 191 152 l 37 152 l 37 0 l 354 0 l 354 111 b 236 518 294 159 236 306 b 412 850 236 712 301 850 b 581 526 527 850 581 700 b 463 111 581 294 522 159 l 463 0 l 780 0 l 780 152 l 625 152 l 625 158 b 762 570 693 241 762 395 b 415 1011 762 763 654 1011 b 55 556 197 1011 55 801 b 191 158 55 383 122 245 l 191 152 "},"Ö":{"x_min":75,"x_max":1111.109375,"ha":1186,"o":"m 334 498 b 593 809 334 691 429 809 b 851 498 756 809 851 691 b 593 183 851 305 756 183 b 334 498 429 183 334 305 m 75 498 b 593 -31 75 156 309 -31 b 1111 498 876 -31 1109 163 b 593 1027 1111 840 876 1027 b 75 498 309 1027 75 840 m 529 1109 l 529 1273 l 366 1273 l 366 1109 l 529 1109 m 820 1106 l 820 1273 l 658 1273 l 658 1106 l 820 1106 "},"ﬂ":{"x_min":25,"x_max":787.5,"ha":897,"o":"m 659 1001 b 640 1005 655 1001 650 1002 b 472 1029 590 1022 538 1029 b 143 725 258 1029 143 920 l 143 687 l 25 687 l 25 548 l 143 548 l 143 0 l 340 0 l 340 548 l 494 548 l 494 687 l 340 687 l 340 737 b 480 876 340 838 376 876 b 593 779 559 876 593 847 l 593 0 l 787 0 l 787 1001 l 659 1001 "},"z":{"x_min":92.09375,"x_max":644.90625,"ha":738,"o":"m 111 530 l 393 530 l 92 136 l 92 0 l 644 0 l 644 156 l 342 156 l 639 547 l 639 687 l 111 687 l 111 530 "},"™":{"x_min":158.328125,"x_max":1230.5625,"ha":1389,"o":"m 441 445 l 441 904 l 608 904 l 608 1001 l 158 1001 l 158 904 l 329 904 l 329 445 l 441 445 m 781 445 l 781 888 l 901 445 l 1002 445 l 1123 888 l 1123 445 l 1230 445 l 1230 1001 l 1054 1001 l 952 618 l 851 1001 l 675 1001 l 675 445 l 781 445 "},"ã":{"x_min":68.078125,"x_max":786.140625,"ha":825,"o":"m 504 250 b 366 113 504 172 444 113 b 273 208 309 113 273 150 b 409 340 273 283 308 318 b 504 375 461 353 470 356 l 504 250 m 704 489 b 395 706 704 682 576 706 b 106 567 172 706 129 612 l 258 497 b 390 586 283 554 330 586 b 504 485 463 586 504 550 l 504 458 b 351 426 450 436 436 433 b 68 196 269 418 68 400 b 290 -17 68 67 156 -17 b 508 110 394 -17 456 24 b 656 -16 527 18 568 -16 b 786 11 704 -16 744 -7 l 786 138 b 758 135 776 136 766 135 b 704 197 725 135 704 160 l 704 489 m 559 939 b 504 879 554 899 537 879 b 413 907 481 879 458 886 b 302 938 354 933 336 938 b 179 765 229 938 172 883 l 265 765 b 312 825 265 779 265 825 b 411 799 333 825 363 817 b 526 768 483 771 491 768 b 647 939 605 768 647 826 l 559 939 "},"æ":{"x_min":56,"x_max":1132.015625,"ha":1186,"o":"m 692 410 b 808 581 690 445 686 581 b 931 410 925 581 931 472 l 692 410 m 483 249 b 349 107 483 172 422 107 b 258 210 293 107 258 147 b 397 343 258 279 293 313 b 483 376 444 357 453 360 l 483 249 m 246 497 b 375 588 271 561 308 588 b 482 508 439 588 482 556 l 482 457 b 331 424 428 436 412 433 b 56 190 247 414 56 390 b 276 -18 56 178 58 -18 b 514 146 428 -18 487 96 b 804 -17 551 82 614 -17 b 1110 143 947 -17 1036 32 l 976 221 b 824 114 922 142 882 114 b 692 286 739 114 696 170 l 1131 286 b 804 708 1149 642 924 708 b 619 657 740 708 676 690 b 396 707 557 693 499 707 b 96 564 162 707 118 613 l 246 497 "},"®":{"x_min":-6.9375,"x_max":1031.953125,"ha":1025,"o":"m 390 216 l 390 443 l 419 443 b 573 306 484 443 518 413 l 620 216 l 758 216 l 693 327 b 576 458 636 425 623 440 b 725 612 668 470 725 530 b 540 768 725 712 658 768 l 279 768 l 279 216 l 390 216 m 390 680 l 491 680 b 606 609 565 680 606 655 b 480 530 606 551 575 531 l 390 530 l 390 680 m 512 1013 b -6 494 226 1013 -6 781 b 512 -25 -6 208 226 -25 b 1031 494 800 -25 1031 208 b 512 1013 1031 781 800 1013 m 513 912 b 930 494 744 912 930 726 b 513 76 930 263 744 76 b 97 494 283 76 97 263 b 513 912 97 726 283 912 "},"É":{"x_min":123.609375,"x_max":829.171875,"ha":897,"o":"m 123 0 l 829 0 l 791 183 l 368 183 l 368 426 l 748 426 l 748 609 l 368 609 l 368 818 l 780 818 l 818 1001 l 123 1001 l 123 0 m 472 1070 l 659 1273 l 445 1273 l 351 1070 l 472 1070 "},"~":{"x_min":79.171875,"x_max":831.953125,"ha":911,"o":"m 831 607 b 633 507 754 538 693 507 b 477 558 594 507 561 518 b 294 616 387 603 344 616 b 79 522 223 616 150 583 l 79 370 b 284 471 150 436 220 471 b 419 427 318 471 355 458 b 626 361 530 373 568 361 b 831 455 688 361 752 390 l 831 607 "},"³":{"x_min":64.8125,"x_max":384.265625,"ha":449,"o":"m 155 891 b 213 944 160 929 177 944 b 264 881 245 944 264 920 b 189 811 264 834 242 812 l 189 751 b 268 666 246 750 268 725 b 214 581 268 609 252 581 b 159 659 191 581 155 593 l 68 680 b 64 638 66 663 64 650 b 220 512 64 569 134 512 b 384 650 317 512 384 569 b 278 790 384 718 352 761 b 370 900 341 813 370 850 b 218 1013 370 968 309 1013 b 66 868 173 1013 50 1004 l 155 891 "},"¡":{"x_min":123.609375,"x_max":325,"ha":449,"o":"m 123 559 l 325 559 l 325 768 l 123 768 l 123 559 m 126 -231 l 325 -231 l 294 451 l 151 451 l 126 -231 "},"[":{"x_min":66.671875,"x_max":454.171875,"ha":521,"o":"m 66 -229 l 450 -229 l 450 -126 l 262 -126 l 262 900 l 454 900 l 454 1002 l 66 1002 l 66 -229 "},"L":{"x_min":140.28125,"x_max":841.671875,"ha":897,"o":"m 140 0 l 841 0 l 841 200 l 384 200 l 384 1001 l 140 1001 l 140 0 "}," ":{"x_min":0,"x_max":0,"ha":333},"∑":{"x_min":32.1875,"x_max":655.921875,"ha":679,"o":"m 655 -137 l 655 40 l 237 40 l 237 44 l 515 470 l 271 836 l 271 840 l 636 840 l 636 997 l 39 997 l 39 863 l 316 433 l 32 -12 l 32 -137 l 655 -137 "},"%":{"x_min":81.9375,"x_max":1105.5625,"ha":1186,"o":"m 337 736 b 297 613 338 658 338 613 b 268 627 286 613 277 618 b 250 716 254 647 250 662 b 294 904 250 862 250 904 b 337 816 334 904 337 865 l 337 736 m 293 1025 b 81 761 166 1025 81 918 b 293 495 81 601 166 495 b 506 761 420 495 506 601 b 293 1025 506 920 422 1025 m 937 180 b 894 66 937 106 931 66 b 850 172 877 66 845 66 l 850 197 b 895 358 851 323 851 358 b 937 226 937 358 937 286 l 937 180 m 894 476 b 681 206 766 476 681 369 b 894 -52 681 52 768 -52 b 1105 213 1022 -52 1105 52 b 894 476 1105 372 1022 476 m 294 -54 l 420 -54 l 893 1026 l 768 1026 l 294 -54 "},"P":{"x_min":144.4375,"x_max":1025,"ha":1114,"o":"m 619 818 b 766 690 711 818 766 769 b 613 558 766 613 702 558 l 388 558 l 388 818 l 619 818 m 144 0 l 390 0 l 390 375 l 694 375 b 1025 688 877 375 1025 515 b 622 1001 1025 881 869 1001 l 144 1001 l 144 0 "},"∏":{"x_min":34.71875,"x_max":859.71875,"ha":896,"o":"m 859 823 l 859 997 l 34 997 l 34 823 l 151 823 l 151 -137 l 329 -137 l 329 823 l 565 823 l 565 -137 l 744 -137 l 744 823 l 859 823 "},"À":{"x_min":78,"x_max":1109,"ha":1186,"o":"m 732 386 l 453 386 l 592 790 l 732 386 m 78 0 l 321 0 l 387 193 l 799 193 l 865 0 l 1109 0 l 747 1001 l 435 1001 l 78 0 m 589 1273 l 375 1273 l 561 1070 l 682 1070 l 589 1273 "},"_":{"x_min":0,"x_max":694.453125,"ha":694,"o":"m 694 -173 l 694 -104 l 0 -104 l 0 -173 l 694 -173 "},"ñ":{"x_min":122.21875,"x_max":775,"ha":897,"o":"m 322 687 l 122 687 l 122 0 l 322 0 l 322 409 b 465 577 322 506 381 577 b 575 390 547 577 575 529 l 575 0 l 775 0 l 775 429 b 713 645 775 558 762 597 b 543 706 672 687 616 706 b 322 580 443 706 377 663 l 322 687 m 595 938 b 540 879 590 898 573 879 b 450 906 518 879 494 886 b 338 937 390 933 372 937 b 215 765 265 937 208 883 l 301 765 b 348 825 301 779 301 825 b 447 798 369 825 400 816 b 562 768 519 770 527 768 b 683 938 641 768 683 826 l 595 938 "},"+":{"x_min":84.71875,"x_max":841.671875,"ha":926,"o":"m 84 386 l 390 386 l 390 80 l 536 80 l 536 386 l 841 386 l 841 531 l 536 531 l 536 837 l 390 837 l 390 531 l 84 531 l 84 386 "},"‚":{"x_min":123.96875,"x_max":325.359375,"ha":449,"o":"m 325 201 l 123 201 l 123 0 l 192 0 b 139 -168 189 -54 178 -88 l 226 -218 b 325 27 279 -144 325 -62 l 325 201 "},"½":{"x_min":58.328125,"x_max":1127.78125,"ha":1186,"o":"m 101 756 b 225 812 143 763 170 775 l 225 426 l 377 426 l 377 1004 l 281 1004 b 101 873 238 948 186 911 l 101 756 m 852 155 b 850 180 850 166 850 173 b 911 250 850 223 873 250 b 970 165 945 250 970 213 b 863 19 970 125 948 83 b 701 -220 734 -76 704 -120 l 1127 -220 l 1127 -88 l 888 -88 b 977 -25 918 -62 926 -56 b 1123 165 1036 9 1123 61 b 912 355 1123 280 1040 355 b 705 181 795 355 705 280 b 720 105 705 165 711 138 l 852 155 m 58 -234 l 202 -234 l 1125 1004 l 984 1004 l 58 -234 "},"Æ":{"x_min":4.171875,"x_max":1404.171875,"ha":1490,"o":"m 709 818 l 709 386 l 441 386 l 647 818 l 709 818 m 4 0 l 258 0 l 351 195 l 708 195 l 708 0 l 1404 0 l 1366 183 l 954 183 l 954 426 l 1326 426 l 1326 609 l 954 609 l 954 818 l 1352 818 l 1386 1001 l 495 1001 l 4 0 "},"Ë":{"x_min":123.609375,"x_max":829.171875,"ha":897,"o":"m 123 0 l 829 0 l 791 183 l 368 183 l 368 426 l 748 426 l 748 609 l 368 609 l 368 818 l 780 818 l 818 1001 l 123 1001 l 123 0 m 398 1109 l 398 1273 l 236 1273 l 236 1109 l 398 1109 m 690 1106 l 690 1273 l 527 1273 l 527 1106 l 690 1106 "},"'":{"x_min":123.609375,"x_max":325,"ha":449,"o":"m 123 1001 l 123 801 l 165 581 l 283 581 l 325 801 l 325 1001 l 123 1001 "},"Š":{"x_min":85.734375,"x_max":1026.015625,"ha":1114,"o":"m 85 197 b 567 -31 166 61 266 -31 b 944 85 753 -31 864 3 b 1026 301 998 140 1026 214 b 587 626 1026 511 849 586 b 369 740 421 651 369 679 b 573 847 369 807 444 847 b 848 693 706 847 787 800 l 1001 822 b 569 1025 969 886 857 1025 b 321 986 467 1025 385 1012 b 132 703 202 936 132 832 b 551 392 132 503 337 418 b 789 262 720 371 789 333 b 564 149 789 189 710 149 b 246 342 334 149 280 268 l 85 197 m 470 1074 l 646 1074 l 787 1274 l 634 1274 l 555 1172 l 481 1274 l 327 1274 l 470 1074 "},"ª":{"x_min":34.71875,"x_max":487.5,"ha":521,"o":"m 309 748 b 225 653 309 691 275 653 b 163 713 186 653 163 676 b 250 798 163 771 202 788 b 309 819 281 803 288 806 l 309 748 m 154 898 b 238 952 175 937 200 952 b 309 894 281 952 309 930 l 309 870 b 216 852 276 859 266 856 b 34 705 154 845 34 831 b 173 570 34 626 91 570 b 311 649 234 570 279 597 b 406 572 326 591 351 572 b 487 590 436 572 462 577 l 487 669 b 434 716 454 663 434 670 l 434 909 b 248 1027 434 991 377 1027 b 58 939 140 1027 90 1005 l 154 898 "},"Œ":{"x_min":80.5625,"x_max":1466.671875,"ha":1490,"o":"m 772 818 l 772 184 b 655 175 730 179 695 175 b 340 494 448 175 340 284 b 636 818 340 706 441 818 l 772 818 m 1015 819 l 1413 819 l 1450 1001 l 720 1001 b 652 1004 711 1001 681 1002 b 587 1006 625 1005 597 1006 b 284 931 455 1006 361 983 b 80 484 154 845 80 684 b 622 -4 80 163 304 -19 l 673 0 l 1466 0 l 1431 184 l 1015 184 l 1015 427 l 1388 427 l 1388 609 l 1015 609 l 1015 819 "},"˛":{"x_min":80.5625,"x_max":383.328125,"ha":463,"o":"m 383 -222 b 288 -238 348 -233 319 -238 b 193 -130 226 -238 193 -201 b 206 -33 193 -93 198 -58 l 105 -33 b 80 -184 91 -87 80 -133 b 251 -343 80 -283 145 -343 b 383 -315 290 -343 340 -331 l 383 -222 "},"ð":{"x_min":100.1875,"x_max":821.34375,"ha":897,"o":"m 465 122 b 309 344 364 122 309 198 b 461 568 309 482 369 568 b 612 344 558 568 612 482 b 465 122 612 198 558 122 m 311 959 b 380 908 336 943 351 931 l 239 852 l 278 750 l 464 819 b 543 689 497 775 515 744 b 454 707 522 698 486 707 b 100 344 207 707 100 509 b 462 -20 100 139 257 -20 b 821 366 675 -20 826 136 b 622 879 826 570 719 769 l 725 918 l 686 1025 l 528 962 b 430 1036 501 986 461 1016 l 311 959 "},"T":{"x_min":66.671875,"x_max":1048.609375,"ha":1114,"o":"m 66 794 l 433 794 l 433 0 l 679 0 l 679 794 l 1048 794 l 1048 1001 l 66 1001 l 66 794 "},"š":{"x_min":52.875,"x_max":684.9375,"ha":738,"o":"m 52 168 b 112 71 75 116 87 97 b 365 -19 172 10 255 -19 b 618 58 483 -19 564 4 b 684 219 661 100 684 157 b 391 451 684 351 577 410 b 243 537 277 478 243 497 b 340 596 243 571 286 596 b 482 493 432 596 476 564 l 657 523 b 345 707 611 691 468 707 b 77 504 180 707 77 629 b 361 261 77 375 159 305 b 511 169 469 237 511 211 b 395 93 511 125 465 93 b 211 229 295 93 237 136 l 52 168 m 282 760 l 458 760 l 598 960 l 445 960 l 366 858 l 293 960 l 138 960 l 282 760 "},"℮":{"x_min":48.84375,"x_max":1196.0625,"ha":1246,"o":"m 1196 480 l 1196 494 b 622 1011 1196 779 939 1011 b 48 494 305 1011 48 779 b 622 -20 48 209 305 -20 b 1075 179 807 -20 973 58 l 993 179 b 623 8 903 75 771 8 b 271 161 486 8 361 66 b 259 193 264 169 259 180 l 259 473 b 266 480 259 479 262 480 l 1196 480 m 984 516 b 979 506 984 513 983 506 l 266 506 b 259 516 262 506 259 513 l 259 793 b 273 829 259 806 264 819 b 623 980 362 920 487 980 b 972 833 759 980 882 922 b 984 800 980 823 984 812 l 984 516 "},"Þ":{"x_min":145.828125,"x_max":1025,"ha":1114,"o":"m 618 630 b 769 502 713 630 769 583 b 606 370 769 423 705 370 l 391 370 l 391 630 l 618 630 m 391 1001 l 145 1001 l 145 0 l 391 0 l 391 188 l 686 188 b 1025 498 875 188 1025 325 b 611 813 1025 700 875 813 l 391 813 l 391 1001 "},"j":{"x_min":44.4375,"x_max":347.21875,"ha":449,"o":"m 148 816 l 347 816 l 347 1001 l 148 1001 l 148 816 m 150 -33 b 77 -115 150 -88 126 -115 b 44 -113 69 -115 58 -115 l 44 -255 b 131 -265 86 -263 104 -265 b 347 -48 277 -265 347 -195 l 347 687 l 150 687 l 150 -33 "},"1":{"x_min":105.5625,"x_max":504.171875,"ha":665,"o":"m 105 594 b 284 718 168 625 231 670 l 284 0 l 504 0 l 504 1011 l 326 1011 b 105 798 231 883 181 843 l 105 594 "},"›":{"x_min":53,"x_max":397,"ha":449,"o":"m 234 386 l 54 54 l 215 54 l 397 386 l 213 716 l 53 716 l 234 386 "},"ı":{"x_min":125,"x_max":323.609375,"ha":449,"o":"m 125 0 l 323 0 l 323 687 l 125 687 l 125 0 "},"ℓ":{"x_min":23.609375,"x_max":611.109375,"ha":628,"o":"m 543 247 b 400 127 508 187 459 127 b 300 279 340 127 301 177 l 300 359 b 527 837 438 518 527 679 b 358 1091 527 983 475 1091 b 126 741 233 1091 126 977 l 126 375 b 23 276 95 340 63 312 l 63 177 b 127 233 86 195 109 218 l 127 216 b 359 -18 134 94 194 -18 b 611 173 454 -18 547 30 l 543 247 m 300 719 b 368 955 300 905 333 955 b 427 851 412 955 427 919 b 300 533 427 759 376 638 l 300 719 "},"ä":{"x_min":68.078125,"x_max":786.140625,"ha":825,"o":"m 504 250 b 366 113 504 172 444 113 b 273 208 309 113 273 150 b 409 340 273 283 308 318 b 504 375 461 353 470 356 l 504 250 m 704 489 b 395 706 704 682 576 706 b 106 567 172 706 129 612 l 258 497 b 390 586 283 554 330 586 b 504 485 463 586 504 550 l 504 458 b 351 426 450 436 436 433 b 68 196 269 418 68 400 b 290 -17 68 67 156 -17 b 508 110 394 -17 456 24 b 656 -16 527 18 568 -16 b 786 11 704 -16 744 -7 l 786 138 b 758 135 776 136 766 135 b 704 197 725 135 704 160 l 704 489 m 348 796 l 348 960 l 186 960 l 186 796 l 348 796 m 640 793 l 640 960 l 477 960 l 477 793 l 640 793 "},"<":{"x_min":85.953125,"x_max":840.125,"ha":926,"o":"m 840 236 l 284 458 l 840 682 l 840 839 l 85 523 l 85 393 l 840 77 l 840 236 "},"£":{"x_min":33.453125,"x_max":865.21875,"ha":897,"o":"m 254 147 b 168 68 234 100 200 68 b 111 121 134 68 111 90 b 177 177 111 151 141 177 b 254 147 202 177 223 169 m 69 553 l 69 428 l 263 428 b 287 299 277 388 287 338 b 284 266 287 291 286 283 b 225 272 269 269 241 272 b 33 108 116 272 33 201 b 172 -16 33 35 91 -16 b 359 83 251 -16 304 11 b 628 -14 459 22 516 -14 b 864 256 871 -14 866 193 l 726 256 b 630 147 726 219 721 147 b 427 216 578 147 539 165 b 457 366 451 274 457 312 b 456 428 457 385 457 397 l 624 428 l 624 555 l 444 555 b 413 747 421 630 413 685 b 506 867 413 816 452 867 b 601 760 563 867 603 828 l 788 740 b 763 863 784 801 778 827 b 509 1016 719 962 628 1016 b 214 705 329 1016 214 894 b 237 553 214 658 218 626 l 69 553 "},"¹":{"x_min":122.21875,"x_max":327.78125,"ha":449,"o":"m 122 791 b 223 855 158 804 183 819 l 223 523 l 327 523 l 327 1013 l 247 1013 b 122 890 222 963 193 936 l 122 791 "},"t":{"x_min":19.4375,"x_max":473.609375,"ha":521,"o":"m 138 901 l 138 687 l 19 687 l 19 550 l 138 550 l 138 150 b 319 -18 138 34 195 -18 b 470 11 370 -18 411 -9 l 470 144 b 408 131 438 134 425 131 b 338 222 359 131 338 161 l 338 550 l 473 550 l 473 687 l 338 687 l 338 1004 l 138 901 "},"¬":{"x_min":84.71875,"x_max":841.671875,"ha":926,"o":"m 84 547 l 695 547 l 695 216 l 841 216 l 841 693 l 84 693 l 84 547 "},"ù":{"x_min":122,"x_max":774.78125,"ha":897,"o":"m 122 181 b 340 -18 122 63 210 -18 b 576 100 469 -18 524 42 l 576 0 l 774 0 l 774 688 l 577 688 l 577 250 b 435 108 577 177 509 108 b 322 221 366 108 322 153 l 322 688 l 122 688 l 122 181 m 453 960 l 240 960 l 426 757 l 547 757 l 453 960 "},"W":{"x_min":78.671875,"x_max":1412,"ha":1490,"o":"m 335 0 l 581 0 l 746 647 l 910 0 l 1153 0 l 1412 1001 l 1182 1001 l 1030 381 l 870 1001 l 618 1001 l 460 390 l 307 1001 l 78 1001 l 335 0 "},"ï":{"x_min":-2.78125,"x_max":451.390625,"ha":449,"o":"m 125 0 l 323 0 l 323 687 l 125 687 l 125 0 m 159 795 l 159 959 l -2 959 l -2 795 l 159 795 m 451 793 l 451 959 l 288 959 l 288 793 l 451 793 "},">":{"x_min":85.875,"x_max":840.046875,"ha":926,"o":"m 85 682 l 641 458 l 85 236 l 85 78 l 840 393 l 840 525 l 85 839 l 85 682 "},"v":{"x_min":70.828125,"x_max":825,"ha":897,"o":"m 345 0 l 566 0 l 825 687 l 622 687 l 454 209 l 273 687 l 70 687 l 345 0 "},"û":{"x_min":122.34375,"x_max":775.109375,"ha":897,"o":"m 122 181 b 340 -18 122 63 211 -18 b 576 100 469 -18 525 42 l 576 0 l 775 0 l 775 687 l 577 687 l 577 250 b 436 108 577 177 509 108 b 322 221 366 108 322 153 l 322 687 l 122 687 l 122 181 m 373 760 l 447 861 l 526 760 l 679 760 l 539 960 l 362 960 l 219 760 l 373 760 "},"Ò":{"x_min":75,"x_max":1111.109375,"ha":1186,"o":"m 334 498 b 593 809 334 691 429 809 b 851 498 756 809 851 691 b 593 183 851 305 756 183 b 334 498 429 183 334 305 m 75 498 b 593 -31 75 156 309 -31 b 1111 498 876 -31 1109 163 b 593 1027 1111 840 876 1027 b 75 498 309 1027 75 840 m 598 1273 l 384 1273 l 570 1070 l 691 1070 l 598 1273 "},"&":{"x_min":110.03125,"x_max":1060.046875,"ha":1114,"o":"m 535 678 b 494 821 508 735 494 784 b 555 896 494 863 522 896 b 630 796 600 896 630 853 b 535 678 630 746 598 708 m 321 290 b 421 440 321 345 344 380 b 590 162 457 360 537 228 b 482 128 543 135 518 128 b 321 290 393 128 321 201 m 1039 146 b 971 140 1004 141 991 140 b 857 178 921 140 893 149 b 1001 423 918 259 961 331 l 847 490 b 736 312 811 419 775 360 b 603 542 690 374 633 477 b 812 790 786 623 812 726 b 558 1021 812 928 710 1021 b 303 777 403 1021 303 926 b 353 587 303 719 316 665 b 110 288 200 526 110 435 b 468 -34 110 99 258 -34 b 703 34 551 -34 632 -11 b 903 -34 758 -15 818 -34 b 1060 -15 951 -34 991 -30 l 1039 146 "},"˝":{"x_min":-40.234375,"x_max":504,"ha":463,"o":"m 79 759 l 254 962 l 54 962 l -40 759 l 79 759 m 337 759 l 504 962 l 311 962 l 215 759 l 337 759 "},"Ð":{"x_min":29.171875,"x_max":1101.390625,"ha":1186,"o":"m 161 563 l 29 563 l 29 438 l 161 438 l 161 0 l 670 0 b 1101 491 934 0 1101 188 b 666 1001 1101 801 930 1001 l 161 1001 l 161 563 m 408 563 l 408 794 l 619 794 b 844 497 763 794 844 687 b 594 209 844 305 761 209 l 408 209 l 408 438 l 643 438 l 643 563 l 408 563 "},"I":{"x_min":138.890625,"x_max":383.328125,"ha":521,"o":"m 138 0 l 383 0 l 383 1001 l 138 1001 l 138 0 "},"ˉ":{"x_min":12.5,"x_max":450,"ha":463,"o":"m 450 787 l 450 912 l 12 912 l 12 787 l 450 787 "},"G":{"x_min":98.734375,"x_max":1014.015625,"ha":1114,"o":"m 1014 538 l 554 538 l 554 361 l 766 361 l 766 231 b 587 176 716 194 661 176 b 355 487 434 176 355 281 b 602 816 355 693 422 816 b 843 675 708 816 782 755 l 997 827 b 602 1026 915 927 815 1026 b 98 483 197 1026 98 705 b 604 -30 98 180 307 -30 b 1014 158 786 -30 945 63 l 1014 538 "},"`":{"x_min":22,"x_max":328.9375,"ha":463,"o":"m 235 959 l 22 959 l 208 756 l 328 756 l 235 959 "},"·":{"x_min":86.109375,"x_max":291.671875,"ha":376,"o":"m 86 280 l 291 280 l 291 488 l 86 488 l 86 280 "},"r":{"x_min":93.0625,"x_max":484.71875,"ha":521,"o":"m 273 687 l 93 687 l 93 0 l 291 0 l 291 345 b 443 498 291 431 356 498 b 484 495 454 498 468 497 l 484 704 b 273 473 352 708 325 641 l 273 687 "},"¿":{"x_min":93.015625,"x_max":733.28125,"ha":825,"o":"m 345 561 l 543 561 l 543 769 l 345 769 l 345 561 m 538 97 b 544 25 543 62 544 40 b 427 -131 544 -77 504 -131 b 308 9 349 -131 308 -83 b 418 209 308 84 338 134 b 515 406 490 276 515 329 l 515 451 l 370 451 b 251 250 369 384 365 336 b 93 -6 205 216 93 131 b 420 -254 93 -156 220 -254 b 733 19 608 -254 718 -159 l 538 97 "},"ý":{"x_min":73.84375,"x_max":825,"ha":897,"o":"m 353 -11 b 228 -91 336 -69 301 -91 b 76 -66 180 -93 139 -84 l 76 -243 b 275 -265 154 -259 204 -265 b 600 30 500 -265 534 -162 l 825 687 l 625 687 l 465 187 l 276 687 l 73 687 l 353 -11 m 472 756 l 659 959 l 446 959 l 351 756 l 472 756 "},"x":{"x_min":65,"x_max":833,"ha":897,"o":"m 338 352 l 65 0 l 287 0 l 449 209 l 612 0 l 833 0 l 560 354 l 813 687 l 595 687 l 449 497 l 303 687 l 81 687 l 338 352 "},"è":{"x_min":78.296875,"x_max":747.03125,"ha":825,"o":"m 290 411 b 421 579 289 448 283 579 b 545 411 550 579 547 448 l 290 411 m 747 356 b 412 706 747 562 608 706 b 78 348 210 706 78 565 b 418 -19 78 206 139 -19 b 727 143 623 -19 697 95 l 591 220 b 433 112 547 148 495 112 b 290 286 340 112 296 168 l 747 286 l 747 356 m 418 959 l 204 959 l 390 756 l 511 756 l 418 959 "},"º":{"x_min":52.78125,"x_max":512.5,"ha":564,"o":"m 281 938 b 377 795 344 938 377 888 b 281 654 377 701 345 654 b 188 797 219 654 188 701 b 281 938 188 891 219 938 m 279 1027 b 52 798 148 1027 52 930 b 279 566 52 668 151 566 b 512 798 418 566 512 661 b 279 1027 512 930 413 1027 "},"Ø":{"x_min":75.046875,"x_max":1110.953125,"ha":1186,"o":"m 722 777 l 358 352 b 334 498 343 393 334 443 b 593 809 334 691 429 809 b 722 777 642 809 687 798 m 830 639 b 851 498 844 597 851 550 b 593 183 851 305 756 183 b 468 215 544 183 501 194 l 830 639 m 186 151 l 111 63 l 245 -45 l 318 38 b 593 -32 397 -8 491 -32 b 1110 498 876 -32 1109 163 b 1002 840 1110 640 1070 755 l 1076 926 l 941 1035 l 873 955 b 593 1028 791 1003 695 1028 b 75 498 309 1028 75 840 l 75 493 b 186 151 75 351 116 236 "},"∞":{"x_min":61.109375,"x_max":958.328125,"ha":1021,"o":"m 958 411 b 751 634 958 547 866 634 b 515 491 631 634 566 551 b 281 634 447 581 379 634 b 61 402 156 634 61 540 b 270 175 61 266 162 175 b 513 322 376 175 445 236 b 744 175 598 204 669 175 b 958 409 854 175 958 262 l 958 411 m 283 275 b 162 401 216 275 162 331 b 280 537 162 480 204 537 b 458 398 362 537 404 472 b 286 275 406 334 356 275 l 283 275 m 741 537 b 856 402 812 537 856 479 b 747 275 856 347 818 275 b 566 408 680 275 643 308 b 740 537 606 456 662 537 l 741 537 "},"μ":{"x_min":90.28125,"x_max":759.71875,"ha":849,"o":"m 90 -276 l 287 -276 l 287 52 b 425 -16 315 13 366 -16 b 562 52 488 -16 534 13 l 562 0 l 759 0 l 759 709 l 562 709 l 562 344 b 425 135 562 183 494 135 b 287 344 355 135 287 183 l 287 709 l 90 709 l 90 -276 "},"÷":{"x_min":86.109375,"x_max":841.671875,"ha":928,"o":"m 375 175 b 462 88 375 127 413 88 b 550 176 511 88 550 127 b 462 263 550 225 511 263 b 375 175 413 263 375 223 m 86 388 l 841 388 l 841 527 l 86 527 l 86 388 m 373 738 b 461 652 373 691 412 652 b 548 740 509 652 548 691 b 461 827 548 788 509 827 b 373 738 412 827 373 787 "},"h":{"x_min":126.390625,"x_max":772.21875,"ha":897,"o":"m 126 0 l 325 0 l 325 393 b 465 575 325 500 383 575 b 576 433 537 575 576 526 l 576 0 l 772 0 l 772 484 b 540 706 772 622 684 706 b 325 580 425 706 359 623 l 325 1001 l 126 1001 l 126 0 "},".":{"x_min":122.21875,"x_max":326.390625,"ha":449,"o":"m 122 0 l 326 0 l 326 208 l 122 208 l 122 0 "},";":{"x_min":121.984375,"x_max":326.15625,"ha":449,"o":"m 121 479 l 326 479 l 326 688 l 121 688 l 121 479 m 121 0 l 199 0 b 126 -206 195 -81 176 -139 l 199 -262 b 326 6 305 -177 326 -73 l 326 208 l 121 208 l 121 0 "},"f":{"x_min":15.28125,"x_max":479.171875,"ha":521,"o":"m 145 687 l 15 687 l 15 550 l 145 550 l 145 0 l 345 0 l 345 548 l 477 548 l 477 687 l 345 687 l 345 795 b 426 872 345 850 369 872 l 479 872 l 479 1022 b 368 1030 420 1029 401 1030 b 145 833 213 1030 145 969 l 145 687 "},"“":{"x_min":127.640625,"x_max":664.03125,"ha":738,"o":"m 127 581 l 329 581 l 329 782 l 260 782 b 313 951 263 837 274 871 l 226 1001 b 127 755 173 927 127 845 l 127 581 m 462 581 l 664 581 l 664 782 l 595 782 b 648 951 598 837 609 871 l 561 1001 b 462 755 508 927 462 845 l 462 581 "},"A":{"x_min":78,"x_max":1109,"ha":1186,"o":"m 732 386 l 453 386 l 592 790 l 732 386 m 78 0 l 321 0 l 387 193 l 799 193 l 865 0 l 1109 0 l 747 1001 l 435 1001 l 78 0 "},"6":{"x_min":26.46875,"x_max":638.96875,"ha":665,"o":"m 344 504 b 426 333 402 504 426 455 b 329 106 426 172 397 106 b 243 305 268 106 243 162 b 344 504 243 445 272 504 m 627 779 b 598 881 619 830 613 852 b 366 1011 557 966 475 1011 b 182 959 295 1011 233 993 b 26 487 72 886 26 743 b 141 68 26 274 59 152 b 359 -22 200 6 272 -22 b 638 326 527 -22 638 115 b 407 663 638 533 550 663 b 243 569 343 663 288 631 b 351 888 244 737 247 888 b 438 756 407 888 433 851 l 627 779 "},"‘":{"x_min":150.640625,"x_max":352.03125,"ha":449,"o":"m 150 581 l 352 581 l 352 782 l 283 782 b 336 951 286 837 297 871 l 249 1001 b 150 755 196 927 150 845 l 150 581 "},"π":{"x_min":5.5625,"x_max":727.78125,"ha":743,"o":"m 715 587 l 727 751 l 213 751 b 5 702 108 751 38 729 l 25 576 b 136 587 50 583 80 587 b 61 0 133 443 104 180 l 231 0 b 309 587 277 170 302 450 l 458 587 l 458 193 b 480 0 458 101 463 33 l 650 0 b 634 195 640 44 634 101 l 634 587 l 715 587 "},"O":{"x_min":75,"x_max":1111.109375,"ha":1186,"o":"m 334 498 b 593 809 334 691 429 809 b 851 498 756 809 851 691 b 593 183 851 305 756 183 b 334 498 429 183 334 305 m 75 498 b 593 -31 75 156 309 -31 b 1111 498 876 -31 1109 163 b 593 1027 1111 840 876 1027 b 75 498 309 1027 75 840 "},"n":{"x_min":122.21875,"x_max":775,"ha":897,"o":"m 322 687 l 122 687 l 122 0 l 322 0 l 322 409 b 465 577 322 506 381 577 b 575 390 547 577 575 529 l 575 0 l 775 0 l 775 429 b 713 645 775 558 762 597 b 543 706 672 687 616 706 b 322 580 443 706 377 663 l 322 687 "},"3":{"x_min":35.21875,"x_max":629.65625,"ha":665,"o":"m 237 744 b 304 881 236 787 233 881 b 382 738 364 881 382 848 b 231 598 382 625 356 600 l 231 463 b 406 245 367 458 406 433 b 315 105 406 154 375 105 b 228 223 258 105 228 147 b 231 277 228 234 229 255 l 43 327 b 35 243 38 290 35 262 b 339 -22 35 79 151 -22 b 629 268 518 -22 629 88 b 429 530 629 493 485 519 b 608 765 487 555 608 606 b 324 1011 608 912 494 1011 b 46 762 156 1011 46 912 b 50 706 46 750 47 730 l 237 744 "},"9":{"x_min":28,"x_max":637.734375,"ha":665,"o":"m 328 870 b 419 673 386 870 419 825 b 329 476 419 543 389 476 b 244 651 266 476 244 520 b 328 870 244 808 268 869 m 419 368 b 311 98 423 188 396 98 b 215 227 255 98 226 138 l 32 213 b 58 109 39 161 44 138 b 297 -22 101 23 184 -22 b 637 494 532 -22 636 136 b 508 930 637 708 598 840 b 312 1011 459 980 384 1011 b 28 641 207 1011 28 931 b 244 323 28 451 115 323 b 418 419 309 323 362 351 l 419 368 "},"l":{"x_min":126.390625,"x_max":323.609375,"ha":449,"o":"m 126 0 l 323 0 l 323 1001 l 126 1001 l 126 0 "},"¤":{"x_min":106.828125,"x_max":819.5625,"ha":926,"o":"m 462 638 b 643 458 562 638 643 558 b 462 278 643 358 562 278 b 281 458 362 278 281 358 b 462 638 281 558 362 638 m 291 725 l 201 815 l 106 718 l 195 627 b 147 458 165 579 147 520 b 197 287 147 396 165 337 l 106 200 l 204 104 l 292 193 b 462 141 340 160 398 141 b 633 191 526 141 584 160 l 723 104 l 819 200 l 727 289 b 777 458 759 337 777 396 b 727 627 777 520 759 579 l 819 718 l 723 815 l 633 725 b 462 775 584 756 526 775 b 291 725 398 775 340 756 "},"∂":{"x_min":50,"x_max":652.78125,"ha":715,"o":"m 131 900 b 287 968 166 931 216 968 b 479 654 406 968 479 805 b 477 611 479 644 479 620 l 476 611 b 316 700 459 643 404 700 b 50 320 175 700 50 561 b 305 -13 50 159 136 -13 b 652 586 526 -13 652 206 b 311 1125 652 958 487 1125 b 86 1047 197 1125 126 1079 l 131 900 m 322 145 b 225 309 261 145 225 218 b 350 547 225 429 272 547 b 465 451 415 547 454 490 b 323 145 454 313 406 145 l 322 145 "},"4":{"x_min":20.828125,"x_max":644.4375,"ha":665,"o":"m 337 356 l 141 356 l 337 705 l 337 356 m 20 402 l 20 205 l 337 205 l 337 0 l 544 0 l 544 205 l 644 205 l 644 356 l 544 356 l 544 1011 l 362 1011 l 20 402 "},"p":{"x_min":126.390625,"x_max":827.78125,"ha":897,"o":"m 323 492 b 472 583 368 555 413 583 b 616 342 566 583 616 500 b 568 143 616 236 602 179 b 476 105 544 121 509 105 b 323 200 420 105 375 135 l 323 492 m 325 687 l 126 687 l 126 -264 l 325 -264 l 325 87 b 544 -17 395 8 451 -17 b 827 361 719 -17 827 126 b 543 707 827 575 719 707 b 325 600 445 707 388 679 l 325 687 "},"‡":{"x_min":47.046875,"x_max":617.9375,"ha":665,"o":"m 292 741 l 47 787 l 47 619 l 292 662 l 255 386 l 294 107 l 47 150 l 47 -19 l 291 30 l 238 -231 l 423 -231 l 365 30 l 615 -18 l 615 151 l 369 108 l 405 386 l 369 663 l 617 619 l 617 788 l 367 741 l 423 1001 l 240 1001 l 292 741 "},"à":{"x_min":68.078125,"x_max":786.34375,"ha":825,"o":"m 504 250 b 366 113 504 172 444 113 b 273 208 309 113 273 150 b 409 340 273 283 308 318 b 504 375 461 353 471 356 l 504 250 m 704 489 b 396 706 704 682 576 706 b 106 567 172 706 129 612 l 258 497 b 390 586 283 554 330 586 b 504 485 464 586 504 550 l 504 458 b 351 426 450 436 436 433 b 68 196 269 418 68 400 b 290 -17 68 67 157 -17 b 508 110 394 -17 457 24 b 657 -16 528 18 568 -16 b 786 11 704 -16 744 -7 l 786 138 b 758 135 776 136 766 135 b 704 197 725 135 704 160 l 704 489 m 418 960 l 204 960 l 390 757 l 511 757 l 418 960 "},"Ü":{"x_min":127.78125,"x_max":987.5,"ha":1114,"o":"m 127 1001 l 127 308 b 551 -30 127 83 262 -29 b 987 308 840 -31 987 83 l 987 1001 l 741 1001 l 741 379 b 551 179 741 244 679 179 b 372 375 430 179 372 244 l 372 1001 l 127 1001 m 493 1109 l 493 1273 l 330 1273 l 330 1109 l 493 1109 m 784 1106 l 784 1273 l 622 1273 l 622 1106 l 784 1106 "},"ó":{"x_min":85.140625,"x_max":812.921875,"ha":897,"o":"m 449 119 b 299 344 351 119 299 194 b 449 566 299 472 351 566 b 599 344 546 566 599 472 b 449 119 599 194 546 119 m 449 -22 b 812 344 654 -22 812 133 b 449 709 812 555 654 709 b 85 344 235 709 85 555 b 449 -22 85 133 235 -22 m 472 756 l 660 959 l 446 959 l 351 756 l 472 756 "},"√":{"x_min":43,"x_max":747,"ha":744,"o":"m 747 1203 l 627 1203 l 426 186 b 406 36 416 128 410 68 l 404 39 b 379 176 399 69 388 123 l 270 586 l 43 494 l 69 387 l 162 425 l 334 -190 l 476 -190 l 747 1203 "}}}
